<svg width="996" height="452" viewBox="0 0 996 452" fill="none" xmlns="http://www.w3.org/2000/svg">
<path d="M792.641 149.24C793.08 141.748 791.979 134.246 789.405 127.196C786.832 120.147 782.84 113.699 777.677 108.253C772.514 102.806 766.289 98.476 759.387 95.5294C752.485 92.5828 745.052 91.0824 737.548 91.1209C730.043 91.1594 722.626 92.736 715.754 95.7533C708.883 98.7706 702.703 103.165 697.596 108.664C692.489 114.163 688.564 120.651 686.063 127.727C683.561 134.802 682.537 142.316 683.053 149.803L684.734 149.687C684.234 142.43 685.227 135.147 687.651 128.288C690.076 121.43 693.88 115.141 698.83 109.81C703.781 104.48 709.771 100.221 716.432 97.2958C723.092 94.3711 730.282 92.8429 737.556 92.8055C744.831 92.7682 752.035 94.2226 758.726 97.0788C765.416 99.935 771.45 104.132 776.454 109.412C781.459 114.691 785.328 120.941 787.823 127.774C790.318 134.607 791.385 141.88 790.959 149.142L792.641 149.24Z" fill="#BBDDC3"/>
<path d="M798.869 179.57C799.424 171.004 798.161 162.417 795.165 154.373C792.168 146.329 787.505 139.009 781.481 132.894C775.457 126.778 768.208 122.006 760.209 118.888C752.211 115.771 743.644 114.38 735.071 114.807C726.497 115.233 718.11 117.467 710.461 121.362C702.811 125.257 696.071 130.725 690.683 137.408C685.295 144.091 681.381 151.837 679.197 160.139C677.013 168.44 676.609 177.11 678.011 185.579L679.855 185.274C678.496 177.065 678.887 168.661 681.004 160.614C683.121 152.567 686.915 145.058 692.138 138.581C697.361 132.103 703.894 126.803 711.309 123.027C718.723 119.251 726.853 117.086 735.163 116.673C743.474 116.26 751.778 117.608 759.531 120.63C767.284 123.651 774.31 128.277 780.149 134.205C785.989 140.133 790.509 147.228 793.414 155.025C796.318 162.823 797.542 171.146 797.004 179.449L798.869 179.57Z" fill="#61D24C"/>
<path d="M802.47 198.253C801.865 182.105 795.103 166.8 783.572 155.479C772.042 144.158 756.616 137.677 740.459 137.367C724.303 137.058 708.64 142.942 696.684 153.813C684.727 164.684 677.384 179.717 676.159 195.831L678.095 195.978C679.282 180.359 686.4 165.786 697.99 155.249C709.579 144.711 724.761 139.008 740.422 139.308C756.083 139.609 771.035 145.89 782.212 156.864C793.389 167.838 799.943 182.673 800.53 198.326L802.47 198.253Z" fill="#00A224"/>
<path d="M419.549 301.76C419.109 309.252 420.21 316.754 422.784 323.804C425.358 330.853 429.349 337.301 434.512 342.747C439.675 348.194 445.9 352.524 452.802 355.471C459.704 358.417 467.137 359.918 474.642 359.879C482.147 359.841 489.564 358.264 496.435 355.247C503.307 352.229 509.487 347.835 514.593 342.336C519.7 336.837 523.626 330.349 526.127 323.273C528.628 316.198 529.652 308.684 529.136 301.197L527.455 301.313C527.956 308.57 526.963 315.853 524.538 322.712C522.114 329.57 518.309 335.859 513.359 341.19C508.409 346.52 502.419 350.779 495.758 353.704C489.097 356.629 481.908 358.157 474.633 358.194C467.359 358.232 460.154 356.777 453.464 353.921C446.773 351.065 440.74 346.868 435.735 341.588C430.73 336.309 426.861 330.059 424.367 323.226C421.872 316.393 420.804 309.12 421.23 301.858L419.549 301.76Z" fill="#D9DDDB"/>
<path d="M413.321 271.43C412.766 279.996 414.028 288.583 417.025 296.627C420.021 304.671 424.685 311.991 430.709 318.106C436.733 324.222 443.982 328.994 451.98 332.112C459.978 335.229 468.545 336.62 477.119 336.193C485.693 335.767 494.079 333.533 501.729 329.638C509.378 325.743 516.118 320.275 521.506 313.592C526.894 306.909 530.808 299.163 532.992 290.861C535.176 282.56 535.58 273.89 534.178 265.421L532.335 265.726C533.694 273.935 533.302 282.339 531.185 290.386C529.068 298.433 525.274 305.942 520.051 312.419C514.829 318.897 508.296 324.197 500.881 327.973C493.466 331.749 485.337 333.914 477.026 334.327C468.716 334.74 460.412 333.392 452.659 330.37C444.906 327.349 437.879 322.723 432.04 316.795C426.201 310.867 421.68 303.772 418.776 295.975C415.871 288.177 414.648 279.854 415.186 271.551L413.321 271.43Z" fill="#DCBEA9"/>
<path d="M409.719 252.747C410.329 269.018 417.189 284.428 428.872 295.77C440.554 307.112 456.16 313.513 472.442 313.642C488.724 313.771 504.429 307.618 516.29 296.462C528.151 285.307 535.254 270.008 536.122 253.749L534.183 253.645C533.342 269.406 526.457 284.235 514.96 295.048C503.463 305.862 488.24 311.826 472.457 311.701C456.675 311.576 441.548 305.371 430.224 294.377C418.9 283.383 412.251 268.446 411.659 252.674L409.719 252.747Z" fill="#FF6B00"/>
<path d="M260.641 148.241C261.081 140.749 259.979 133.246 257.406 126.197C254.832 119.147 250.84 112.7 245.677 107.253C240.514 101.807 234.29 97.4765 227.387 94.5299C220.485 91.5832 213.052 90.0829 205.548 90.1214C198.043 90.1599 190.626 91.7365 183.754 94.7538C176.883 97.7711 170.703 102.165 165.596 107.664C160.489 113.164 156.564 119.651 154.063 126.727C151.562 133.803 150.538 141.316 151.054 148.803L152.734 148.687C152.234 141.43 153.227 134.147 155.651 127.289C158.076 120.43 161.881 114.141 166.831 108.811C171.781 103.48 177.771 99.221 184.432 96.2963C191.092 93.3716 198.282 91.8434 205.556 91.806C212.831 91.7687 220.036 93.223 226.726 96.0793C233.416 98.9355 239.45 103.133 244.455 108.412C249.459 113.692 253.328 119.941 255.823 126.775C258.318 133.608 259.385 140.88 258.959 148.142L260.641 148.241Z" fill="#DED8B7"/>
<path d="M266.869 178.571C267.424 170.005 266.162 161.418 263.165 153.374C260.168 145.329 255.505 138.01 249.481 131.894C243.457 125.779 236.208 121.006 228.21 117.889C220.211 114.772 211.644 113.381 203.071 113.807C194.497 114.233 186.111 116.467 178.461 120.362C170.811 124.257 164.071 129.726 158.684 136.408C153.296 143.091 149.381 150.837 147.197 159.139C145.014 167.441 144.609 176.111 146.011 184.58L147.855 184.274C146.496 176.065 146.888 167.662 149.005 159.615C151.122 151.568 154.916 144.059 160.138 137.581C165.361 131.104 171.894 125.803 179.309 122.028C186.724 118.252 194.853 116.087 203.164 115.673C211.474 115.26 219.778 116.609 227.531 119.63C235.284 122.652 242.31 127.278 248.15 133.206C253.989 139.133 258.509 146.229 261.414 154.026C264.319 161.823 265.542 170.147 265.004 178.45L266.869 178.571Z" fill="#D2C68B"/>
<path d="M270.47 197.253C269.852 180.771 262.822 165.181 250.877 153.807C238.932 142.432 223.017 136.172 206.524 136.36C190.031 136.549 174.263 143.171 162.581 154.815C150.899 166.459 144.226 182.205 143.985 198.698L145.926 198.726C146.16 182.74 152.628 167.477 163.951 156.19C175.275 144.903 190.559 138.484 206.546 138.301C222.533 138.119 237.96 144.187 249.538 155.212C261.116 166.238 267.931 181.349 268.531 197.326L270.47 197.253Z" fill="#AA9942"/>
<path fill-rule="evenodd" clip-rule="evenodd" d="M803 205.538C857.906 216.476 889.261 215.944 946 205.538L946 248C887.392 238.886 856.118 239.029 803 248L803 205.538Z" fill="url(#paint0_linear_34_20)"/>
<path fill-rule="evenodd" clip-rule="evenodd" d="M941 231.723C891.085 229.353 862.58 229.469 811 231.723V222.523C864.279 224.498 892.71 224.467 941 222.523V231.723Z" fill="white" fill-opacity="0.5"/>
<path fill-rule="evenodd" clip-rule="evenodd" d="M534 202C589.29 212.937 620.865 212.406 678 202L678 244.462C618.982 235.347 587.49 235.491 534 244.462L534 202Z" fill="url(#paint1_linear_34_20)"/>
<path fill-rule="evenodd" clip-rule="evenodd" d="M671 228.185C621.085 225.815 592.58 225.93 541 228.185V218.985C594.279 220.959 622.71 220.928 671 218.985V228.185Z" fill="white" fill-opacity="0.5"/>
<path fill-rule="evenodd" clip-rule="evenodd" d="M268 202C323.674 212.937 355.468 212.406 413 202L413 244.462C353.572 235.347 321.861 235.491 268 244.462L268 202Z" fill="url(#paint2_linear_34_20)"/>
<path fill-rule="evenodd" clip-rule="evenodd" d="M405 228.185C355.085 225.815 326.58 225.93 275 228.185V218.985C328.279 220.959 356.71 220.928 405 218.985V228.185Z" fill="white" fill-opacity="0.5"/>
<path fill-rule="evenodd" clip-rule="evenodd" d="M147 244.462C92.0935 233.524 60.7381 234.056 4 244.462V202C62.6079 211.114 93.8813 210.971 147 202V244.462Z" fill="url(#paint3_linear_34_20)"/>
<path fill-rule="evenodd" clip-rule="evenodd" d="M140 228.185C90.8529 225.815 62.7865 225.93 12 228.185V218.985C64.4602 220.959 92.4532 220.928 140 218.985V228.185Z" fill="white" fill-opacity="0.5"/>
<path fill-rule="evenodd" clip-rule="evenodd" d="M738 436L738 295L739 295L739 436L738 436Z" fill="#00A224"/>
<path fill-rule="evenodd" clip-rule="evenodd" d="M887 444H591V443H887V444Z" fill="#00A224"/>
<path d="M747 444C747 448.418 743.418 452 739 452C734.581 452 731 448.418 731 444C731 439.582 734.581 436 739 436C743.418 436 747 439.582 747 444Z" fill="#00A224"/>
<path fill-rule="evenodd" clip-rule="evenodd" d="M473 156L473 16L474 16L474 156L473 156Z" fill="#FF6B00"/>
<path fill-rule="evenodd" clip-rule="evenodd" d="M622 8H326V7H622V8Z" fill="#FF6B00"/>
<path d="M481 8C481 12.4183 477.418 16 473 16C468.581 16 465 12.4183 465 8C465 3.58172 468.581 0 473 0C477.418 0 481 3.58172 481 8Z" fill="#FF6B00"/>
<path fill-rule="evenodd" clip-rule="evenodd" d="M206 435L206 294L207 294L207 435L206 435Z" fill="#00D1FF"/>
<path fill-rule="evenodd" clip-rule="evenodd" d="M355 443H58.9995V442H355V443Z" fill="#00D1FF"/>
<path d="M215 443C215 447.418 211.418 451 207 451C202.581 451 199 447.418 199 443C199 438.582 202.581 435 207 435C211.418 435 215 438.582 215 443Z" fill="#00D1FF"/>
<path d="M415.503 93.716C415.503 89.588 416.175 86.372 417.519 84.068C418.863 81.74 421.215 80.576 424.575 80.576C427.911 80.576 430.251 81.74 431.595 84.068C432.939 86.372 433.611 89.588 433.611 93.716C433.611 97.916 432.939 101.18 431.595 103.508C430.251 105.836 427.911 107 424.575 107C421.215 107 418.863 105.836 417.519 103.508C416.175 101.18 415.503 97.916 415.503 93.716ZM430.371 93.716C430.371 91.628 430.227 89.864 429.939 88.424C429.675 86.96 429.111 85.784 428.247 84.896C427.407 84.008 426.183 83.564 424.575 83.564C422.943 83.564 421.695 84.008 420.831 84.896C419.991 85.784 419.427 86.96 419.139 88.424C418.875 89.864 418.743 91.628 418.743 93.716C418.743 95.876 418.875 97.688 419.139 99.152C419.427 100.616 419.991 101.792 420.831 102.68C421.695 103.568 422.943 104.012 424.575 104.012C426.183 104.012 427.407 103.568 428.247 102.68C429.111 101.792 429.675 100.616 429.939 99.152C430.227 97.688 430.371 95.876 430.371 93.716ZM452.616 87.164C452.088 84.5 450.444 83.168 447.684 83.168C445.548 83.168 443.952 83.996 442.896 85.652C441.84 87.284 441.324 89.984 441.348 93.752C441.9 92.504 442.812 91.532 444.084 90.836C445.38 90.116 446.82 89.756 448.404 89.756C450.876 89.756 452.844 90.524 454.308 92.06C455.796 93.596 456.54 95.72 456.54 98.432C456.54 100.064 456.216 101.528 455.568 102.824C454.944 104.12 453.984 105.152 452.688 105.92C451.416 106.688 449.868 107.072 448.044 107.072C445.572 107.072 443.64 106.52 442.248 105.416C440.856 104.312 439.884 102.788 439.332 100.844C438.78 98.9 438.504 96.5 438.504 93.644C438.504 84.836 441.576 80.432 447.72 80.432C450.072 80.432 451.92 81.068 453.264 82.34C454.608 83.612 455.4 85.22 455.64 87.164H452.616ZM447.72 92.528C446.688 92.528 445.716 92.744 444.804 93.176C443.892 93.584 443.148 94.22 442.572 95.084C442.02 95.924 441.744 96.956 441.744 98.18C441.744 100.004 442.272 101.492 443.328 102.644C444.384 103.772 445.896 104.336 447.864 104.336C449.544 104.336 450.876 103.82 451.86 102.788C452.868 101.732 453.372 100.316 453.372 98.54C453.372 96.668 452.892 95.204 451.932 94.148C450.972 93.068 449.568 92.528 447.72 92.528Z" fill="#FF6B00"/>
<path d="M783 222C783 246.853 762.852 267 738 267C713.147 267 693 246.853 693 222C693 197.147 713.147 177 738 177C762.852 177 783 197.147 783 222Z" fill="#00A224"/>
<path fill-rule="evenodd" clip-rule="evenodd" d="M744.865 215.511C745.466 216.113 745.996 216.772 746.563 217.574C746.701 217.768 746.575 218.036 746.339 218.059C746.225 218.069 746.115 218.018 746.051 217.924C745.448 217.053 744.963 216.447 744.445 215.927C743.929 215.411 743.344 214.944 742.512 214.38C742.419 214.317 742.365 214.21 742.373 214.097C742.389 213.856 742.66 213.723 742.858 213.861C743.629 214.398 744.268 214.912 744.865 215.511Z" fill="white"/>
<path fill-rule="evenodd" clip-rule="evenodd" d="M731.492 215.554C732.095 214.952 732.752 214.419 733.55 213.845C733.738 213.71 734.001 213.835 734.018 214.066C734.026 214.172 733.977 214.274 733.89 214.335C733.019 214.947 732.412 215.435 731.891 215.956C731.372 216.474 730.901 217.06 730.328 217.892C730.269 217.978 730.169 218.028 730.065 218.023C729.829 218.013 729.696 217.748 729.833 217.555C730.375 216.789 730.893 216.152 731.492 215.554Z" fill="white"/>
<path fill-rule="evenodd" clip-rule="evenodd" d="M737.664 233.413C737.479 233.413 737.329 233.263 737.329 233.078L737.329 228.386C737.329 228.201 737.479 228.051 737.664 228.051C737.849 228.051 737.999 228.201 737.999 228.386L737.999 233.078C737.999 233.263 737.849 233.413 737.664 233.413Z" fill="white"/>
<path fill-rule="evenodd" clip-rule="evenodd" d="M713.869 222.353C713.869 222.539 714.019 222.689 714.204 222.689L720.237 222.689C720.422 222.689 720.572 222.539 720.572 222.353C720.572 222.168 720.422 222.018 720.237 222.018L714.204 222.018C714.019 222.018 713.869 222.168 713.869 222.353Z" fill="white"/>
<path fill-rule="evenodd" clip-rule="evenodd" d="M755.427 222.353C755.427 222.539 755.577 222.689 755.762 222.689L761.795 222.689C761.98 222.689 762.13 222.539 762.13 222.353C762.13 222.168 761.98 222.018 761.795 222.018L755.762 222.018C755.577 222.018 755.427 222.168 755.427 222.353Z" fill="white"/>
<path fill-rule="evenodd" clip-rule="evenodd" d="M752.313 210.237C752.443 210.368 752.656 210.368 752.787 210.237L757.052 205.972C757.183 205.841 757.183 205.629 757.052 205.498C756.921 205.367 756.709 205.367 756.578 205.498L752.313 209.763C752.182 209.894 752.182 210.107 752.313 210.237Z" fill="white"/>
<path fill-rule="evenodd" clip-rule="evenodd" d="M737.664 203.92C737.849 203.92 737.999 203.77 737.999 203.585L737.999 197.553C737.999 197.368 737.849 197.218 737.664 197.218C737.479 197.218 737.329 197.368 737.329 197.553L737.329 203.585C737.329 203.77 737.479 203.92 737.664 203.92Z" fill="white"/>
<path fill-rule="evenodd" clip-rule="evenodd" d="M723.538 210.237C723.669 210.106 723.669 209.894 723.538 209.763L719.272 205.498C719.141 205.367 718.929 205.367 718.798 205.498C718.667 205.629 718.667 205.841 718.798 205.972L723.064 210.237C723.195 210.368 723.407 210.368 723.538 210.237Z" fill="white"/>
<path fill-rule="evenodd" clip-rule="evenodd" d="M723.581 221.165C723.581 213.283 729.971 206.893 737.853 206.893C745.735 206.893 752.124 213.283 752.124 221.165V221.398C752.124 225.907 749.924 230.133 746.23 232.718L745.428 233.28C744.633 233.836 744.16 234.745 744.16 235.716C744.16 237.233 742.93 238.463 741.413 238.463H734.293C732.776 238.463 731.546 237.233 731.546 235.716C731.546 234.745 731.072 233.836 730.278 233.28L729.475 232.718C725.781 230.132 723.581 225.907 723.581 221.398V221.165ZM737.853 208.197C730.691 208.197 724.885 214.003 724.885 221.165V221.398C724.885 225.481 726.878 229.308 730.223 231.65L731.026 232.212C732.169 233.012 732.85 234.32 732.85 235.716C732.85 236.512 733.496 237.158 734.293 237.158H741.413C742.209 237.158 742.855 236.512 742.855 235.716C742.855 234.32 743.536 233.012 744.68 232.212L745.482 231.65C748.828 229.308 750.82 225.481 750.82 221.398V221.165C750.82 214.003 745.014 208.197 737.853 208.197Z" fill="white"/>
<path fill-rule="evenodd" clip-rule="evenodd" d="M732.024 240.678C732.024 239.614 732.886 238.751 733.95 238.751H741.596C742.66 238.751 743.523 239.614 743.523 240.678C743.523 241.742 742.66 242.604 741.596 242.604H733.95C732.886 242.604 732.024 241.742 732.024 240.678ZM733.95 240.056C733.606 240.056 733.328 240.334 733.328 240.678C733.328 241.021 733.606 241.3 733.95 241.3H741.596C741.94 241.3 742.218 241.021 742.218 240.678C742.218 240.334 741.94 240.056 741.596 240.056H733.95Z" fill="white"/>
<path fill-rule="evenodd" clip-rule="evenodd" d="M732.979 243.226C732.979 242.162 733.842 241.3 734.906 241.3H740.64C741.704 241.3 742.567 242.162 742.567 243.226C742.567 244.29 741.704 245.153 740.64 245.153H734.906C733.842 245.153 732.979 244.29 732.979 243.226ZM734.906 242.604C734.562 242.604 734.284 242.883 734.284 243.226C734.284 243.57 734.562 243.848 734.906 243.848H740.64C740.984 243.848 741.262 243.57 741.262 243.226C741.262 242.883 740.984 242.604 740.64 242.604H734.906Z" fill="white"/>
<path fill-rule="evenodd" clip-rule="evenodd" d="M735.05 243.848H740.496V244.819C740.496 246.323 739.277 247.542 737.773 247.542C736.269 247.542 735.05 246.323 735.05 244.819V243.848ZM736.394 245.152C736.544 245.775 737.104 246.238 737.773 246.238C738.442 246.238 739.002 245.775 739.152 245.152H736.394Z" fill="white"/>
<path d="M517 222C517 246.853 496.852 267 472 267C447.147 267 427 246.853 427 222C427 197.147 447.147 177 472 177C496.852 177 517 197.147 517 222Z" fill="#FF6B00"/>
<path fill-rule="evenodd" clip-rule="evenodd" d="M469.085 221.694H486.366C486.144 218.984 485.236 216.366 483.717 214.093C481.956 211.457 479.453 209.403 476.524 208.19C473.595 206.976 470.372 206.659 467.262 207.278C464.153 207.896 461.297 209.423 459.055 211.664C456.813 213.906 455.287 216.762 454.668 219.872C454.05 222.981 454.367 226.204 455.58 229.133C456.794 232.062 458.848 234.565 461.484 236.327C463.757 237.845 466.375 238.754 469.085 238.975V221.694ZM470.389 240.332C469.953 240.332 469.518 240.316 469.085 240.283C466.116 240.059 463.247 239.073 460.759 237.411C457.909 235.506 455.687 232.799 454.375 229.632C453.063 226.465 452.72 222.979 453.389 219.617C454.058 216.255 455.709 213.166 458.133 210.742C460.557 208.318 463.645 206.667 467.008 205.998C470.37 205.329 473.855 205.673 477.023 206.985C480.19 208.297 482.897 210.518 484.802 213.369C486.464 215.856 487.45 218.726 487.674 221.694C487.707 222.127 487.723 222.562 487.723 222.999H470.389V240.332Z" fill="white"/>
<path fill-rule="evenodd" clip-rule="evenodd" d="M472.978 243.478C475.058 243.336 477.104 242.857 479.036 242.057C481.37 241.09 483.491 239.673 485.278 237.887C487.064 236.1 488.481 233.979 489.448 231.645C490.248 229.714 490.727 227.667 490.868 225.587L472.978 225.587L472.978 243.478ZM472.978 244.785C472.544 244.812 472.109 244.826 471.673 244.826L471.673 224.283L492.217 224.283C492.217 224.718 492.203 225.153 492.175 225.587C492.032 227.839 491.519 230.054 490.653 232.144C489.621 234.637 488.107 236.902 486.2 238.809C484.292 240.717 482.028 242.23 479.535 243.262C477.445 244.128 475.229 244.641 472.978 244.785Z" fill="white"/>
<path d="M251 222C251 246.853 230.852 267 206 267C181.147 267 161 246.853 161 222C161 197.147 181.147 177 206 177C230.852 177 251 197.147 251 222Z" fill="#00D1FF"/>
<path fill-rule="evenodd" clip-rule="evenodd" d="M188.545 229.989C189.71 229.989 190.655 229.044 190.655 227.879C190.655 226.713 189.71 225.768 188.545 225.768C187.379 225.768 186.434 226.713 186.434 227.879C186.434 229.044 187.379 229.989 188.545 229.989ZM188.545 231.294C190.431 231.294 191.96 229.765 191.96 227.879C191.96 225.993 190.431 224.464 188.545 224.464C186.659 224.464 185.13 225.993 185.13 227.879C185.13 229.765 186.659 231.294 188.545 231.294Z" fill="white"/>
<path fill-rule="evenodd" clip-rule="evenodd" d="M224.106 217.743C225.272 217.743 226.217 216.798 226.217 215.632C226.217 214.467 225.272 213.522 224.106 213.522C222.941 213.522 221.996 214.467 221.996 215.632C221.996 216.798 222.941 217.743 224.106 217.743ZM224.106 219.047C225.992 219.047 227.521 217.518 227.521 215.632C227.521 213.746 225.992 212.217 224.106 212.217C222.221 212.217 220.692 213.746 220.692 215.632C220.692 217.518 222.221 219.047 224.106 219.047Z" fill="white"/>
<path fill-rule="evenodd" clip-rule="evenodd" d="M200.32 217.743C201.486 217.743 202.431 216.798 202.431 215.632C202.431 214.467 201.486 213.522 200.32 213.522C199.155 213.522 198.21 214.467 198.21 215.632C198.21 216.798 199.155 217.743 200.32 217.743ZM200.32 219.047C202.206 219.047 203.735 217.518 203.735 215.632C203.735 213.746 202.206 212.217 200.32 212.217C198.434 212.217 196.905 213.746 196.905 215.632C196.905 217.518 198.434 219.047 200.32 219.047Z" fill="white"/>
<path fill-rule="evenodd" clip-rule="evenodd" d="M212.331 229.989C213.497 229.989 214.442 229.044 214.442 227.879C214.442 226.713 213.497 225.768 212.331 225.768C211.165 225.768 210.221 226.713 210.221 227.879C210.221 229.044 211.165 229.989 212.331 229.989ZM212.331 231.294C214.217 231.294 215.746 229.765 215.746 227.879C215.746 225.993 214.217 224.464 212.331 224.464C210.445 224.464 208.916 225.993 208.916 227.879C208.916 229.765 210.445 231.294 212.331 231.294Z" fill="white"/>
<path fill-rule="evenodd" clip-rule="evenodd" d="M198.083 218.105L190.782 225.406L189.86 224.483L197.161 217.183L198.083 218.105Z" fill="white"/>
<path fill-rule="evenodd" clip-rule="evenodd" d="M210.094 225.406L202.793 218.105L203.715 217.183L211.016 224.483L210.094 225.406Z" fill="white"/>
<path fill-rule="evenodd" clip-rule="evenodd" d="M214.568 225.406L221.869 218.105L222.791 219.027L215.491 226.328L214.568 225.406Z" fill="white"/>
<rect y="109" width="166" height="227" fill="url(#paint4_linear_34_20)"/>
<rect x="996" y="325" width="166" height="227" transform="rotate(-180 996 325)" fill="url(#paint5_linear_34_20)"/>
<defs>
<linearGradient id="paint0_linear_34_20" x1="803" y1="205.538" x2="946" y2="205.538" gradientUnits="userSpaceOnUse">
<stop offset="0.260417" stop-color="#9ED2AA"/>
<stop offset="1" stop-color="#E46B6B"/>
</linearGradient>
<linearGradient id="paint1_linear_34_20" x1="534" y1="202" x2="678" y2="202" gradientUnits="userSpaceOnUse">
<stop stop-color="#F07A25"/>
<stop offset="0.848958" stop-color="#87DC9A"/>
</linearGradient>
<linearGradient id="paint2_linear_34_20" x1="268" y1="202" x2="413" y2="202" gradientUnits="userSpaceOnUse">
<stop offset="0.140625" stop-color="#5CBACE"/>
<stop offset="0.817708" stop-color="#ED8031"/>
</linearGradient>
<linearGradient id="paint3_linear_34_20" x1="147" y1="244.462" x2="4" y2="244.462" gradientUnits="userSpaceOnUse">
<stop offset="0.145833" stop-color="#33CCEE"/>
<stop offset="0.942708" stop-color="#A5A5A5"/>
</linearGradient>
<linearGradient id="paint4_linear_34_20" x1="0" y1="223" x2="166" y2="223" gradientUnits="userSpaceOnUse">
<stop/>
<stop offset="1" stop-opacity="0"/>
</linearGradient>
<linearGradient id="paint5_linear_34_20" x1="996" y1="439" x2="1162" y2="439" gradientUnits="userSpaceOnUse">
<stop/>
<stop offset="1" stop-opacity="0"/>
</linearGradient>
</defs>
</svg>
