<svg width="1280" height="452" viewBox="0 0 1280 452" fill="none" xmlns="http://www.w3.org/2000/svg">
<path d="M1118.55 306.76C1118.11 314.252 1119.21 321.754 1121.78 328.804C1124.36 335.854 1128.35 342.301 1133.51 347.747C1138.68 353.194 1144.9 357.524 1151.8 360.471C1158.71 363.417 1166.14 364.918 1173.64 364.879C1181.15 364.841 1188.56 363.264 1195.44 360.247C1202.31 357.23 1208.49 352.836 1213.59 347.336C1218.7 341.837 1222.63 335.349 1225.13 328.274C1227.63 321.198 1228.65 313.685 1228.14 306.198L1226.46 306.313C1226.96 313.571 1225.96 320.854 1223.54 327.712C1221.11 334.571 1217.31 340.859 1212.36 346.19C1207.41 351.521 1201.42 355.78 1194.76 358.704C1188.1 361.629 1180.91 363.157 1173.63 363.195C1166.36 363.232 1159.15 361.778 1152.46 358.921C1145.77 356.065 1139.74 351.868 1134.74 346.588C1129.73 341.309 1125.86 335.06 1123.37 328.226C1120.87 321.393 1119.81 314.121 1120.23 306.859L1118.55 306.76Z" fill="#EDD1D1"/>
<path d="M1112.32 276.43C1111.77 284.996 1113.03 293.583 1116.03 301.627C1119.02 309.671 1123.69 316.991 1129.71 323.107C1135.73 329.222 1142.98 333.995 1150.98 337.112C1158.98 340.229 1167.55 341.62 1176.12 341.194C1184.69 340.767 1193.08 338.533 1200.73 334.638C1208.38 330.743 1215.12 325.275 1220.51 318.592C1225.89 311.91 1229.81 304.163 1231.99 295.862C1234.18 287.56 1234.58 278.89 1233.18 270.421L1231.34 270.726C1232.69 278.936 1232.3 287.339 1230.19 295.386C1228.07 303.433 1224.27 310.942 1219.05 317.419C1213.83 323.897 1207.3 329.198 1199.88 332.973C1192.47 336.749 1184.34 338.914 1176.03 339.327C1167.72 339.741 1159.41 338.392 1151.66 335.371C1143.91 332.349 1136.88 327.723 1131.04 321.795C1125.2 315.867 1120.68 308.772 1117.78 300.975C1114.87 293.177 1113.65 284.854 1114.19 276.551L1112.32 276.43Z" fill="#D79D9D"/>
<path d="M1108.72 257.747C1109.33 274.055 1116.22 289.496 1127.95 300.844C1139.68 312.192 1155.34 318.57 1171.66 318.644C1187.97 318.718 1203.69 312.484 1215.52 301.243C1227.35 290.003 1234.38 274.625 1235.14 258.323L1233.2 258.233C1232.47 274.035 1225.65 288.94 1214.19 299.836C1202.72 310.732 1187.48 316.775 1171.66 316.703C1155.85 316.631 1140.67 310.449 1129.3 299.449C1117.93 288.449 1111.25 273.482 1110.66 257.675L1108.72 257.747Z" fill="#AA4242"/>
<path d="M957.641 149.24C958.081 141.748 956.98 134.246 954.406 127.196C951.832 120.147 947.841 113.699 942.678 108.253C937.515 102.806 931.29 98.476 924.388 95.5294C917.486 92.5828 910.053 91.0824 902.548 91.1209C895.043 91.1594 887.626 92.736 880.755 95.7533C873.883 98.7706 867.703 103.165 862.596 108.664C857.49 114.163 853.564 120.651 851.063 127.727C848.562 134.802 847.538 142.316 848.054 149.803L849.735 149.687C849.234 142.43 850.227 135.147 852.652 128.288C855.076 121.43 858.881 115.141 863.831 109.81C868.781 104.48 874.771 100.221 881.432 97.2958C888.093 94.3711 895.282 92.8429 902.557 92.8055C909.831 92.7682 917.036 94.2226 923.726 97.0788C930.417 99.935 936.45 104.132 941.455 109.412C946.459 114.691 950.329 120.941 952.823 127.774C955.318 134.607 956.385 141.88 955.96 149.142L957.641 149.24Z" fill="#E5CDDB"/>
<path d="M963.869 179.57C964.424 171.004 963.162 162.417 960.165 154.373C957.169 146.329 952.505 139.009 946.481 132.894C940.457 126.778 933.208 122.006 925.21 118.888C917.212 115.771 908.645 114.38 900.071 114.807C891.497 115.233 883.111 117.467 875.461 121.362C867.812 125.257 861.072 130.725 855.684 137.408C850.296 144.091 846.382 151.837 844.198 160.139C842.014 168.44 841.61 177.11 843.011 185.579L844.855 185.274C843.496 177.065 843.888 168.661 846.005 160.614C848.122 152.567 851.916 145.058 857.139 138.581C862.361 132.103 868.894 126.803 876.309 123.027C883.724 119.251 891.853 117.086 900.164 116.673C908.474 116.26 916.778 117.608 924.531 120.63C932.284 123.651 939.311 128.277 945.15 134.205C950.989 140.133 955.51 147.228 958.414 155.025C961.319 162.823 962.542 171.146 962.004 179.449L963.869 179.57Z" fill="#DE9BC3"/>
<path d="M967.471 198.253C966.865 182.105 960.103 166.8 948.573 155.479C937.042 144.157 921.616 137.677 905.46 137.367C889.303 137.057 873.64 142.942 861.684 153.812C849.728 164.683 842.384 179.717 841.16 195.83L843.096 195.978C844.282 180.359 851.401 165.786 862.99 155.249C874.579 144.711 889.762 139.008 905.423 139.308C921.083 139.609 936.036 145.89 947.213 156.864C958.39 167.838 964.944 182.673 965.531 198.326L967.471 198.253Z" fill="#AA4280"/>
<path d="M584.549 301.76C584.11 309.252 585.211 316.754 587.785 323.804C590.358 330.853 594.35 337.301 599.513 342.747C604.676 348.194 610.901 352.524 617.803 355.471C624.705 358.417 632.138 359.918 639.642 359.879C647.147 359.841 654.564 358.264 661.436 355.247C668.307 352.229 674.487 347.835 679.594 342.336C684.701 336.837 688.626 330.349 691.127 323.273C693.629 316.198 694.653 308.684 694.136 301.197L692.456 301.313C692.956 308.57 691.963 315.853 689.539 322.712C687.114 329.57 683.31 335.859 678.36 341.19C673.409 346.52 667.419 350.779 660.758 353.704C654.098 356.629 646.908 358.157 639.634 358.194C632.359 358.232 625.155 356.777 618.464 353.921C611.774 351.065 605.74 346.868 600.736 341.588C595.731 336.309 591.862 330.059 589.367 323.226C586.872 316.393 585.805 309.12 586.231 301.858L584.549 301.76Z" fill="#D9DDDB"/>
<path d="M578.321 271.43C577.766 279.996 579.028 288.583 582.025 296.627C585.022 304.671 589.685 311.991 595.709 318.106C601.733 324.222 608.982 328.994 616.981 332.112C624.979 335.229 633.546 336.62 642.119 336.193C650.693 335.767 659.08 333.533 666.729 329.638C674.379 325.743 681.119 320.275 686.507 313.592C691.894 306.909 695.809 299.163 697.993 290.861C700.177 282.56 700.581 273.89 699.179 265.421L697.335 265.726C698.694 273.935 698.302 282.339 696.186 290.386C694.069 298.433 690.274 305.942 685.052 312.419C679.829 318.897 673.296 324.197 665.881 327.973C658.466 331.749 650.337 333.914 642.027 334.327C633.716 334.74 625.412 333.392 617.659 330.37C609.906 327.349 602.88 322.723 597.04 316.795C591.201 310.867 586.681 303.772 583.776 295.975C580.872 288.177 579.648 279.854 580.186 271.551L578.321 271.43Z" fill="#AAD2C4"/>
<path d="M574.72 252.747C575.33 269.018 582.19 284.428 593.872 295.77C605.555 307.112 621.16 313.513 637.443 313.642C653.725 313.771 669.43 307.618 681.29 296.462C693.151 285.307 700.254 270.008 701.122 253.749L699.184 253.645C698.342 269.406 691.457 284.235 679.96 295.048C668.464 305.862 653.24 311.826 637.458 311.701C621.675 311.576 606.549 305.371 595.225 294.377C583.901 283.383 577.251 268.446 576.66 252.674L574.72 252.747Z" fill="#42AA85"/>
<path d="M425.642 148.241C426.081 140.749 424.98 133.246 422.406 126.197C419.832 119.147 415.841 112.7 410.678 107.253C405.515 101.807 399.29 97.4765 392.388 94.5298C385.486 91.5832 378.053 90.0828 370.548 90.1213C363.044 90.1598 355.626 91.7364 348.755 94.7538C341.883 97.7711 335.703 102.165 330.597 107.664C325.49 113.164 321.565 119.651 319.063 126.727C316.562 133.803 315.538 141.316 316.054 148.803L317.735 148.687C317.235 141.43 318.227 134.147 320.652 127.289C323.076 120.43 326.881 114.141 331.831 108.811C336.781 103.48 342.772 99.221 349.432 96.2963C356.093 93.3715 363.282 91.8433 370.557 91.806C377.831 91.7687 385.036 93.223 391.726 96.0792C398.417 98.9355 404.451 103.133 409.455 108.412C414.46 113.692 418.329 119.941 420.824 126.775C423.318 133.608 424.386 140.88 423.96 148.142L425.642 148.241Z" fill="#DED8B7"/>
<path d="M431.869 178.571C432.424 170.005 431.162 161.418 428.166 153.374C425.169 145.329 420.506 138.01 414.481 131.894C408.457 125.779 401.208 121.006 393.21 117.889C385.212 114.772 376.645 113.381 368.071 113.807C359.498 114.233 351.111 116.467 343.461 120.362C335.812 124.257 329.072 129.726 323.684 136.408C318.296 143.091 314.382 150.837 312.198 159.139C310.014 167.441 309.61 176.111 311.012 184.58L312.855 184.274C311.496 176.065 311.888 167.662 314.005 159.615C316.122 151.568 319.916 144.059 325.139 137.581C330.361 131.104 336.894 125.803 344.309 122.028C351.724 118.252 359.854 116.087 368.164 115.673C376.475 115.26 384.779 116.609 392.531 119.63C400.284 122.652 407.311 127.278 413.15 133.206C418.99 139.133 423.51 146.229 426.414 154.026C429.319 161.823 430.543 170.147 430.005 178.45L431.869 178.571Z" fill="#D2C68B"/>
<path d="M435.471 197.253C434.853 180.771 427.822 165.181 415.877 153.807C403.932 142.432 388.018 136.172 371.524 136.36C355.031 136.549 339.264 143.171 327.581 154.815C315.899 166.459 309.227 182.205 308.985 198.698L310.926 198.726C311.16 182.74 317.628 167.477 328.952 156.19C340.276 144.903 355.559 138.484 371.546 138.301C387.534 138.119 402.96 144.187 414.538 155.212C426.117 166.238 432.932 181.349 433.531 197.326L435.471 197.253Z" fill="#AA9942"/>
<path d="M54.5491 301.76C54.1098 309.252 55.211 316.754 57.7847 323.804C60.3584 330.854 64.35 337.301 69.513 342.747C74.676 348.194 80.9008 352.524 87.8029 355.471C94.705 358.417 102.138 359.918 109.643 359.879C117.147 359.841 124.564 358.264 131.436 355.247C138.307 352.23 144.487 347.836 149.594 342.336C154.701 336.837 158.626 330.349 161.127 323.274C163.629 316.198 164.653 308.685 164.137 301.198L162.456 301.313C162.956 308.571 161.964 315.854 159.539 322.712C157.115 329.571 153.31 335.859 148.36 341.19C143.41 346.521 137.419 350.78 130.758 353.704C124.098 356.629 116.908 358.157 109.634 358.195C102.359 358.232 95.1547 356.778 88.4643 353.921C81.774 351.065 75.7403 346.868 70.7357 341.588C65.7311 336.309 61.862 330.06 59.3672 323.226C56.8725 316.393 55.8051 309.121 56.2309 301.859L54.5491 301.76Z" fill="#EAEAEA"/>
<path d="M48.3214 271.43C47.7664 279.996 49.0286 288.583 52.0252 296.627C55.0218 304.671 59.6852 311.991 65.7094 318.107C71.7335 324.222 78.9825 328.995 86.9808 332.112C94.979 335.229 103.546 336.62 112.119 336.194C120.693 335.767 129.08 333.533 136.729 329.638C144.379 325.743 151.119 320.275 156.507 313.592C161.895 306.91 165.809 299.163 167.993 290.862C170.177 282.56 170.581 273.89 169.179 265.421L167.336 265.726C168.694 273.936 168.303 282.339 166.186 290.386C164.069 298.433 160.275 305.942 155.052 312.419C149.829 318.897 143.296 324.198 135.881 327.973C128.467 331.749 120.337 333.914 112.027 334.327C103.716 334.741 95.4121 333.392 87.6593 330.371C79.9065 327.349 72.8799 322.723 67.0406 316.795C61.2012 310.867 56.681 303.772 53.7763 295.975C50.8717 288.177 49.6482 279.854 50.1861 271.551L48.3214 271.43Z" fill="#BABABA"/>
<path d="M44.6754 250.483C44.7035 267.086 51.2566 283.012 62.9211 294.826C74.5855 306.641 90.4267 313.397 107.028 313.638C123.628 313.878 139.659 307.584 151.66 296.112C163.662 284.64 170.674 268.91 171.183 252.315L169.242 252.256C168.749 268.341 161.953 283.589 150.319 294.709C138.686 305.828 123.147 311.93 107.056 311.697C90.9642 311.464 75.6091 304.915 64.3025 293.463C52.9959 282.01 46.6439 266.573 46.6167 250.48L44.6754 250.483Z" fill="#5E5E6C"/>
<path fill-rule="evenodd" clip-rule="evenodd" d="M1361 248C1311.85 237.063 1283.79 237.594 1233 248V205.538C1285.46 214.653 1313.45 214.509 1361 205.538V248Z" fill="#E27276"/>
<path fill-rule="evenodd" clip-rule="evenodd" d="M1361 231.015C1314.54 228.646 1288.01 228.761 1240 231.015V221.815C1289.59 223.79 1316.05 223.759 1361 221.815V231.015Z" fill="white" fill-opacity="0.5"/>
<path fill-rule="evenodd" clip-rule="evenodd" d="M968 205.538C1022.91 216.476 1054.26 215.944 1111 205.538L1111 248C1052.39 238.886 1021.12 239.029 968 248L968 205.538Z" fill="url(#paint0_linear_1_77)"/>
<path fill-rule="evenodd" clip-rule="evenodd" d="M1106 231.723C1056.09 229.353 1027.58 229.469 976 231.723V222.523C1029.28 224.498 1057.71 224.467 1106 222.523V231.723Z" fill="white" fill-opacity="0.5"/>
<path fill-rule="evenodd" clip-rule="evenodd" d="M699 202C754.29 212.937 785.865 212.406 843 202L843 244.462C783.982 235.347 752.49 235.491 699 244.462L699 202Z" fill="url(#paint1_linear_1_77)"/>
<path fill-rule="evenodd" clip-rule="evenodd" d="M836 228.185C786.085 225.815 757.58 225.93 706 228.185V218.985C759.28 220.959 787.71 220.928 836 218.985V228.185Z" fill="white" fill-opacity="0.5"/>
<path fill-rule="evenodd" clip-rule="evenodd" d="M433 202C488.674 212.937 520.468 212.406 578 202L578 244.462C518.572 235.347 486.862 235.491 433 244.462L433 202Z" fill="url(#paint2_linear_1_77)"/>
<path fill-rule="evenodd" clip-rule="evenodd" d="M570 228.185C520.085 225.815 491.58 225.93 440 228.185V218.985C493.28 220.959 521.71 220.928 570 218.985V228.185Z" fill="white" fill-opacity="0.5"/>
<path fill-rule="evenodd" clip-rule="evenodd" d="M312 244.462C257.094 233.524 225.739 234.056 169 244.462V202C227.608 211.114 258.882 210.971 312 202V244.462Z" fill="url(#paint3_linear_1_77)"/>
<path fill-rule="evenodd" clip-rule="evenodd" d="M305 228.185C255.853 225.815 227.787 225.93 177 228.185V218.985C229.461 220.959 257.454 220.928 305 218.985V228.185Z" fill="white" fill-opacity="0.5"/>
<path fill-rule="evenodd" clip-rule="evenodd" d="M48 244.462C-1.91498 233.524 -30.4199 234.056 -82 244.462V202C-28.7201 211.114 -0.289703 210.971 48 202V244.462Z" fill="#A5A5A5"/>
<path fill-rule="evenodd" clip-rule="evenodd" d="M40 227.477C-6.84329 225.29 -33.5941 225.396 -82 227.477V218.985C-31.9988 220.807 -5.31803 220.779 40 218.985V227.477Z" fill="#FFFBFF" fill-opacity="0.5"/>
<path fill-rule="evenodd" clip-rule="evenodd" d="M1177 161L1177 109.113L1178 109.113L1178 161L1177 161Z" fill="#AA4242"/>
<path fill-rule="evenodd" clip-rule="evenodd" d="M1178 109.778L1113 109.778V108.448L1178 108.448V109.778Z" fill="#AA4242"/>
<path fill-rule="evenodd" clip-rule="evenodd" d="M1113 109.113L1113 8L1114 8L1114 109.113L1113 109.113Z" fill="#AA4242"/>
<path fill-rule="evenodd" clip-rule="evenodd" d="M1261 8H965V7H1261V8Z" fill="#AA4242"/>
<path d="M1121 8C1121 12.4183 1117.42 16 1113 16C1108.58 16 1105 12.4183 1105 8C1105 3.58172 1108.58 0 1113 0C1117.42 0 1121 3.58172 1121 8Z" fill="#AA4242"/>
<path fill-rule="evenodd" clip-rule="evenodd" d="M903 436L903 295L904 295L904 436L903 436Z" fill="#AA4280"/>
<path fill-rule="evenodd" clip-rule="evenodd" d="M1052 444H756V443H1052V444Z" fill="#AA4280"/>
<path d="M912 444C912 448.418 908.418 452 904 452C899.582 452 896 448.418 896 444C896 439.582 899.582 436 904 436C908.418 436 912 439.582 912 444Z" fill="#AA4280"/>
<path fill-rule="evenodd" clip-rule="evenodd" d="M638 156L638 16L639 16L639 156L638 156Z" fill="#42AA85"/>
<path fill-rule="evenodd" clip-rule="evenodd" d="M787 8H491V7H787V8Z" fill="#42AA85"/>
<path d="M646 8C646 12.4183 642.418 16 638 16C633.582 16 630 12.4183 630 8C630 3.58172 633.582 0 638 0C642.418 0 646 3.58172 646 8Z" fill="#42AA85"/>
<path fill-rule="evenodd" clip-rule="evenodd" d="M371 435L371 294L372 294L372 435L371 435Z" fill="#AA9942"/>
<path fill-rule="evenodd" clip-rule="evenodd" d="M520 443H224V442H520V443Z" fill="#AA9942"/>
<path d="M380 443C380 447.418 376.418 451 372 451C367.582 451 364 447.418 364 443C364 438.582 367.582 435 372 435C376.418 435 380 438.582 380 443Z" fill="#AA9942"/>
<path fill-rule="evenodd" clip-rule="evenodd" d="M107 156L107 112.174L108 112.174L108 156L107 156Z" fill="#5E5E6C"/>
<path fill-rule="evenodd" clip-rule="evenodd" d="M169 112.174H107V110.957H169V112.174Z" fill="#5E5E6C"/>
<path fill-rule="evenodd" clip-rule="evenodd" d="M168 112.174L168 16L169 16L169 112.174L168 112.174Z" fill="#5E5E6C"/>
<path fill-rule="evenodd" clip-rule="evenodd" d="M316 8H20V7H316V8Z" fill="#5E5E6C"/>
<path d="M177 8C177 12.4183 173.418 16 169 16C164.582 16 161 12.4183 161 8C161 3.58172 164.582 0 169 0C173.418 0 177 3.58172 177 8Z" fill="#5E5E6C"/>
<path d="M1126.63 86.716C1126.63 82.588 1127.3 79.372 1128.64 77.068C1129.99 74.74 1132.34 73.576 1135.7 73.576C1139.03 73.576 1141.37 74.74 1142.72 77.068C1144.06 79.372 1144.73 82.588 1144.73 86.716C1144.73 90.916 1144.06 94.18 1142.72 96.508C1141.37 98.836 1139.03 100 1135.7 100C1132.34 100 1129.99 98.836 1128.64 96.508C1127.3 94.18 1126.63 90.916 1126.63 86.716ZM1141.49 86.716C1141.49 84.628 1141.35 82.864 1141.06 81.424C1140.8 79.96 1140.23 78.784 1139.37 77.896C1138.53 77.008 1137.31 76.564 1135.7 76.564C1134.07 76.564 1132.82 77.008 1131.95 77.896C1131.11 78.784 1130.55 79.96 1130.26 81.424C1130 82.864 1129.87 84.628 1129.87 86.716C1129.87 88.876 1130 90.688 1130.26 92.152C1130.55 93.616 1131.11 94.792 1131.95 95.68C1132.82 96.568 1134.07 97.012 1135.7 97.012C1137.31 97.012 1138.53 96.568 1139.37 95.68C1140.23 94.792 1140.8 93.616 1141.06 92.152C1141.35 90.688 1141.49 88.876 1141.49 86.716ZM1165.83 76.816H1153.19V85.024C1153.74 84.256 1154.56 83.632 1155.64 83.152C1156.72 82.648 1157.88 82.396 1159.13 82.396C1161.12 82.396 1162.74 82.816 1163.99 83.656C1165.24 84.472 1166.13 85.54 1166.66 86.86C1167.21 88.156 1167.48 89.536 1167.48 91C1167.48 92.728 1167.16 94.276 1166.51 95.644C1165.86 97.012 1164.87 98.092 1163.52 98.884C1162.2 99.676 1160.56 100.072 1158.59 100.072C1156.07 100.072 1154.03 99.424 1152.47 98.128C1150.91 96.832 1149.96 95.104 1149.63 92.944H1152.83C1153.14 94.312 1153.8 95.38 1154.81 96.148C1155.82 96.916 1157.09 97.3 1158.63 97.3C1160.52 97.3 1161.95 96.736 1162.91 95.608C1163.87 94.456 1164.35 92.944 1164.35 91.072C1164.35 89.2 1163.87 87.76 1162.91 86.752C1161.95 85.72 1160.54 85.204 1158.66 85.204C1157.39 85.204 1156.28 85.516 1155.32 86.14C1154.38 86.74 1153.7 87.568 1153.26 88.624H1150.17V73.936H1165.83V76.816Z" fill="#AA4242"/>
<path d="M852.609 362.716C852.609 358.588 853.281 355.372 854.625 353.068C855.969 350.74 858.321 349.576 861.681 349.576C865.017 349.576 867.357 350.74 868.701 353.068C870.045 355.372 870.717 358.588 870.717 362.716C870.717 366.916 870.045 370.18 868.701 372.508C867.357 374.836 865.017 376 861.681 376C858.321 376 855.969 374.836 854.625 372.508C853.281 370.18 852.609 366.916 852.609 362.716ZM867.477 362.716C867.477 360.628 867.333 358.864 867.045 357.424C866.781 355.96 866.217 354.784 865.353 353.896C864.513 353.008 863.289 352.564 861.681 352.564C860.049 352.564 858.801 353.008 857.937 353.896C857.097 354.784 856.533 355.96 856.245 357.424C855.981 358.864 855.849 360.628 855.849 362.716C855.849 364.876 855.981 366.688 856.245 368.152C856.533 369.616 857.097 370.792 857.937 371.68C858.801 372.568 860.049 373.012 861.681 373.012C863.289 373.012 864.513 372.568 865.353 371.68C866.217 370.792 866.781 369.616 867.045 368.152C867.333 366.688 867.477 364.876 867.477 362.716ZM874.422 370.204V367.72L887.058 350.224H890.982V367.36H894.582V370.204H890.982V376H887.742V370.204H874.422ZM887.886 353.644L878.202 367.36H887.886V353.644Z" fill="#AA4280"/>
<path d="M585.33 86.716C585.33 82.588 586.002 79.372 587.346 77.068C588.69 74.74 591.042 73.576 594.402 73.576C597.738 73.576 600.078 74.74 601.422 77.068C602.766 79.372 603.438 82.588 603.438 86.716C603.438 90.916 602.766 94.18 601.422 96.508C600.078 98.836 597.738 100 594.402 100C591.042 100 588.69 98.836 587.346 96.508C586.002 94.18 585.33 90.916 585.33 86.716ZM600.198 86.716C600.198 84.628 600.054 82.864 599.766 81.424C599.502 79.96 598.938 78.784 598.074 77.896C597.234 77.008 596.01 76.564 594.402 76.564C592.77 76.564 591.522 77.008 590.658 77.896C589.818 78.784 589.254 79.96 588.966 81.424C588.702 82.864 588.57 84.628 588.57 86.716C588.57 88.876 588.702 90.688 588.966 92.152C589.254 93.616 589.818 94.792 590.658 95.68C591.522 96.568 592.77 97.012 594.402 97.012C596.01 97.012 597.234 96.568 598.074 95.68C598.938 94.792 599.502 93.616 599.766 92.152C600.054 90.688 600.198 88.876 600.198 86.716ZM607.863 80.524C608.031 78.316 608.883 76.588 610.419 75.34C611.955 74.092 613.947 73.468 616.395 73.468C618.027 73.468 619.431 73.768 620.607 74.368C621.807 74.944 622.707 75.736 623.307 76.744C623.931 77.752 624.243 78.892 624.243 80.164C624.243 81.652 623.811 82.936 622.947 84.016C622.107 85.096 621.003 85.792 619.635 86.104V86.284C621.195 86.668 622.431 87.424 623.343 88.552C624.255 89.68 624.711 91.156 624.711 92.98C624.711 94.348 624.399 95.584 623.775 96.688C623.151 97.768 622.215 98.62 620.967 99.244C619.719 99.868 618.219 100.18 616.467 100.18C613.923 100.18 611.835 99.52 610.203 98.2C608.571 96.856 607.659 94.96 607.467 92.512H610.635C610.803 93.952 611.391 95.128 612.399 96.04C613.407 96.952 614.751 97.408 616.431 97.408C618.111 97.408 619.383 96.976 620.247 96.112C621.135 95.224 621.579 94.084 621.579 92.692C621.579 90.892 620.979 89.596 619.779 88.804C618.579 88.012 616.767 87.616 614.343 87.616H613.515V84.88H614.379C616.587 84.856 618.255 84.496 619.383 83.8C620.511 83.08 621.075 81.976 621.075 80.488C621.075 79.216 620.655 78.196 619.815 77.428C618.999 76.66 617.823 76.276 616.287 76.276C614.799 76.276 613.599 76.66 612.687 77.428C611.775 78.196 611.235 79.228 611.067 80.524H607.863Z" fill="#42AA85"/>
<path d="M318.576 362.716C318.576 358.588 319.248 355.372 320.592 353.068C321.936 350.74 324.288 349.576 327.648 349.576C330.984 349.576 333.324 350.74 334.668 353.068C336.012 355.372 336.684 358.588 336.684 362.716C336.684 366.916 336.012 370.18 334.668 372.508C333.324 374.836 330.984 376 327.648 376C324.288 376 321.936 374.836 320.592 372.508C319.248 370.18 318.576 366.916 318.576 362.716ZM333.444 362.716C333.444 360.628 333.3 358.864 333.012 357.424C332.748 355.96 332.184 354.784 331.32 353.896C330.48 353.008 329.256 352.564 327.648 352.564C326.016 352.564 324.768 353.008 323.904 353.896C323.064 354.784 322.5 355.96 322.212 357.424C321.948 358.864 321.816 360.628 321.816 362.716C321.816 364.876 321.948 366.688 322.212 368.152C322.5 369.616 323.064 370.792 323.904 371.68C324.768 372.568 326.016 373.012 327.648 373.012C329.256 373.012 330.48 372.568 331.32 371.68C332.184 370.792 332.748 369.616 333.012 368.152C333.3 366.688 333.444 364.876 333.444 362.716ZM340.785 373.372C343.833 370.924 346.221 368.92 347.949 367.36C349.677 365.776 351.129 364.132 352.305 362.428C353.505 360.7 354.105 359.008 354.105 357.352C354.105 355.792 353.721 354.568 352.953 353.68C352.209 352.768 350.997 352.312 349.317 352.312C347.685 352.312 346.413 352.828 345.501 353.86C344.613 354.868 344.133 356.224 344.061 357.928H340.893C340.989 355.24 341.805 353.164 343.341 351.7C344.877 350.236 346.857 349.504 349.281 349.504C351.753 349.504 353.709 350.188 355.149 351.556C356.613 352.924 357.345 354.808 357.345 357.208C357.345 359.2 356.745 361.144 355.545 363.04C354.369 364.912 353.025 366.568 351.513 368.008C350.001 369.424 348.069 371.08 345.717 372.976H358.101V375.712H340.785V373.372Z" fill="#AA9942"/>
<path d="M122.664 86.716C122.664 82.588 123.336 79.372 124.68 77.068C126.024 74.74 128.376 73.576 131.736 73.576C135.072 73.576 137.412 74.74 138.756 77.068C140.1 79.372 140.772 82.588 140.772 86.716C140.772 90.916 140.1 94.18 138.756 96.508C137.412 98.836 135.072 100 131.736 100C128.376 100 126.024 98.836 124.68 96.508C123.336 94.18 122.664 90.916 122.664 86.716ZM137.532 86.716C137.532 84.628 137.388 82.864 137.1 81.424C136.836 79.96 136.272 78.784 135.408 77.896C134.568 77.008 133.344 76.564 131.736 76.564C130.104 76.564 128.856 77.008 127.992 77.896C127.152 78.784 126.588 79.96 126.3 81.424C126.036 82.864 125.904 84.628 125.904 86.716C125.904 88.876 126.036 90.688 126.3 92.152C126.588 93.616 127.152 94.792 127.992 95.68C128.856 96.568 130.104 97.012 131.736 97.012C133.344 97.012 134.568 96.568 135.408 95.68C136.272 94.792 136.836 93.616 137.1 92.152C137.388 90.688 137.532 88.876 137.532 86.716ZM144.405 76.96V73.972H151.173V100H147.861V76.96H144.405Z" fill="#5E5E6C"/>
<path d="M1216 227C1216 251.853 1195.85 272 1171 272C1146.15 272 1126 251.853 1126 227C1126 202.147 1146.15 182 1171 182C1195.85 182 1216 202.147 1216 227Z" fill="#AA4242"/>
<path fill-rule="evenodd" clip-rule="evenodd" d="M1169.45 216.599V204.826H1152.74V240.044H1181.1V216.599H1169.45ZM1182.41 215.947V241.348H1151.43V203.522H1170.1L1182.41 215.947ZM1170.76 206.034L1179.92 215.295H1170.76V206.034Z" fill="white"/>
<path d="M1163.17 220.804C1163.17 220.264 1163.61 219.826 1164.15 219.826H1174.59C1175.13 219.826 1175.57 220.264 1175.57 220.804C1175.57 221.345 1175.13 221.783 1174.59 221.783H1164.15C1163.61 221.783 1163.17 221.345 1163.17 220.804Z" fill="white"/>
<path d="M1163.17 226.674C1163.17 226.134 1163.61 225.696 1164.15 225.696H1174.59C1175.13 225.696 1175.57 226.134 1175.57 226.674C1175.57 227.214 1175.13 227.652 1174.59 227.652H1164.15C1163.61 227.652 1163.17 227.214 1163.17 226.674Z" fill="white"/>
<path d="M1163.17 232.544C1163.17 232.003 1163.61 231.565 1164.15 231.565H1174.59C1175.13 231.565 1175.57 232.003 1175.57 232.544C1175.57 233.084 1175.13 233.522 1174.59 233.522H1164.15C1163.61 233.522 1163.17 233.084 1163.17 232.544Z" fill="white"/>
<path d="M1158.61 220.804C1158.61 221.345 1158.17 221.783 1157.63 221.783C1157.09 221.783 1156.65 221.345 1156.65 220.804C1156.65 220.264 1157.09 219.826 1157.63 219.826C1158.17 219.826 1158.61 220.264 1158.61 220.804Z" fill="white"/>
<path d="M1158.61 226.674C1158.61 227.214 1158.17 227.652 1157.63 227.652C1157.09 227.652 1156.65 227.214 1156.65 226.674C1156.65 226.134 1157.09 225.696 1157.63 225.696C1158.17 225.696 1158.61 226.134 1158.61 226.674Z" fill="white"/>
<path d="M1158.61 232.544C1158.61 233.084 1158.17 233.522 1157.63 233.522C1157.09 233.522 1156.65 233.084 1156.65 232.544C1156.65 232.003 1157.09 231.565 1157.63 231.565C1158.17 231.565 1158.61 232.003 1158.61 232.544Z" fill="white"/>
<path fill-rule="evenodd" clip-rule="evenodd" d="M1179.98 242.996C1182.41 242.996 1184.39 241.021 1184.39 238.585C1184.39 236.149 1182.41 234.174 1179.98 234.174C1177.54 234.174 1175.57 236.149 1175.57 238.585C1175.57 241.021 1177.54 242.996 1179.98 242.996ZM1179.98 244.3C1183.13 244.3 1185.69 241.742 1185.69 238.585C1185.69 235.429 1183.13 232.87 1179.98 232.87C1176.82 232.87 1174.26 235.429 1174.26 238.585C1174.26 241.742 1176.82 244.3 1179.98 244.3Z" fill="white"/>
<path d="M1183.8 242.806L1184.2 242.409L1185.19 243.403L1184.79 243.8L1183.8 242.806Z" fill="white"/>
<path fill-rule="evenodd" clip-rule="evenodd" d="M1189.14 246.715L1186.46 244.027C1186.18 243.751 1185.73 243.751 1185.46 244.027C1185.18 244.302 1185.18 244.749 1185.46 245.025L1188.15 247.713C1188.42 247.989 1188.87 247.989 1189.14 247.713C1189.42 247.438 1189.42 246.991 1189.14 246.715ZM1185 243.566C1184.47 244.096 1184.47 244.956 1185 245.486L1187.68 248.174C1188.21 248.705 1189.07 248.705 1189.6 248.174C1190.14 247.644 1190.14 246.784 1189.6 246.254L1186.92 243.566C1186.39 243.035 1185.53 243.035 1185 243.566Z" fill="white"/>
<path d="M948 222C948 246.853 927.853 267 903 267C878.147 267 858 246.853 858 222C858 197.147 878.147 177 903 177C927.853 177 948 197.147 948 222Z" fill="#AA4280"/>
<path fill-rule="evenodd" clip-rule="evenodd" d="M909.865 215.511C910.467 216.113 910.996 216.772 911.564 217.574C911.701 217.768 911.576 218.036 911.339 218.059C911.226 218.07 911.116 218.018 911.051 217.924C910.448 217.053 909.964 216.447 909.445 215.927C908.93 215.411 908.344 214.944 907.512 214.38C907.419 214.317 907.366 214.21 907.373 214.097C907.389 213.856 907.66 213.723 907.859 213.861C908.629 214.398 909.268 214.913 909.865 215.511Z" fill="white"/>
<path fill-rule="evenodd" clip-rule="evenodd" d="M896.492 215.554C897.095 214.952 897.752 214.419 898.55 213.845C898.739 213.71 899.001 213.835 899.018 214.066C899.026 214.172 898.977 214.274 898.89 214.335C898.019 214.947 897.413 215.435 896.891 215.956C896.373 216.474 895.901 217.06 895.329 217.892C895.269 217.978 895.17 218.028 895.065 218.023C894.829 218.013 894.697 217.748 894.833 217.555C895.376 216.789 895.893 216.152 896.492 215.554Z" fill="white"/>
<path fill-rule="evenodd" clip-rule="evenodd" d="M902.665 233.413C902.48 233.413 902.33 233.263 902.33 233.078L902.33 228.386C902.33 228.201 902.48 228.051 902.665 228.051C902.85 228.051 903 228.201 903 228.386L903 233.078C903 233.263 902.85 233.413 902.665 233.413Z" fill="white"/>
<path fill-rule="evenodd" clip-rule="evenodd" d="M878.87 222.353C878.87 222.538 879.02 222.689 879.205 222.689L885.237 222.689C885.422 222.689 885.572 222.538 885.572 222.353C885.572 222.168 885.422 222.018 885.237 222.018L879.205 222.018C879.02 222.018 878.87 222.168 878.87 222.353Z" fill="white"/>
<path fill-rule="evenodd" clip-rule="evenodd" d="M920.427 222.353C920.427 222.538 920.578 222.689 920.763 222.689L926.795 222.689C926.98 222.689 927.13 222.538 927.13 222.353C927.13 222.168 926.98 222.018 926.795 222.018L920.763 222.018C920.578 222.018 920.427 222.168 920.427 222.353Z" fill="white"/>
<path fill-rule="evenodd" clip-rule="evenodd" d="M917.313 210.237C917.444 210.368 917.656 210.368 917.787 210.237L922.053 205.972C922.184 205.841 922.184 205.629 922.053 205.498C921.922 205.367 921.71 205.367 921.579 205.498L917.313 209.763C917.182 209.894 917.182 210.107 917.313 210.237Z" fill="white"/>
<path fill-rule="evenodd" clip-rule="evenodd" d="M902.665 203.92C902.85 203.92 903 203.77 903 203.585L903 197.553C903 197.368 902.85 197.218 902.665 197.218C902.48 197.218 902.33 197.368 902.33 197.553L902.33 203.585C902.33 203.77 902.48 203.92 902.665 203.92Z" fill="white"/>
<path fill-rule="evenodd" clip-rule="evenodd" d="M888.538 210.237C888.669 210.106 888.669 209.894 888.538 209.763L884.272 205.498C884.142 205.367 883.929 205.367 883.798 205.498C883.668 205.629 883.668 205.841 883.798 205.972L888.064 210.237C888.195 210.368 888.407 210.368 888.538 210.237Z" fill="white"/>
<path fill-rule="evenodd" clip-rule="evenodd" d="M888.582 221.164C888.582 213.282 894.971 206.893 902.853 206.893C910.735 206.893 917.125 213.282 917.125 221.164V221.398C917.125 225.907 914.925 230.132 911.231 232.718L910.428 233.28C909.633 233.836 909.16 234.745 909.16 235.715C909.16 237.233 907.93 238.463 906.413 238.463H899.293C897.776 238.463 896.546 237.233 896.546 235.715C896.546 234.745 896.073 233.836 895.278 233.28L894.475 232.718C890.782 230.132 888.582 225.907 888.582 221.398V221.164ZM902.853 208.197C895.692 208.197 889.886 214.003 889.886 221.164V221.398C889.886 225.481 891.878 229.308 895.223 231.65L896.026 232.211C897.169 233.012 897.85 234.32 897.85 235.715C897.85 236.512 898.496 237.158 899.293 237.158H906.413C907.21 237.158 907.856 236.512 907.856 235.715C907.856 234.32 908.537 233.012 909.68 232.211L910.483 231.65C913.828 229.308 915.82 225.481 915.82 221.398V221.164C915.82 214.003 910.015 208.197 902.853 208.197Z" fill="white"/>
<path fill-rule="evenodd" clip-rule="evenodd" d="M897.024 240.678C897.024 239.614 897.887 238.751 898.951 238.751H906.596C907.66 238.751 908.523 239.614 908.523 240.678C908.523 241.742 907.66 242.604 906.596 242.604H898.951C897.887 242.604 897.024 241.742 897.024 240.678ZM898.951 240.056C898.607 240.056 898.328 240.334 898.328 240.678C898.328 241.021 898.607 241.3 898.951 241.3H906.596C906.94 241.3 907.219 241.021 907.219 240.678C907.219 240.334 906.94 240.056 906.596 240.056H898.951Z" fill="white"/>
<path fill-rule="evenodd" clip-rule="evenodd" d="M897.98 243.226C897.98 242.162 898.842 241.3 899.906 241.3H905.641C906.705 241.3 907.567 242.162 907.567 243.226C907.567 244.29 906.705 245.153 905.641 245.153H899.906C898.842 245.153 897.98 244.29 897.98 243.226ZM899.906 242.604C899.563 242.604 899.284 242.883 899.284 243.226C899.284 243.57 899.563 243.848 899.906 243.848H905.641C905.984 243.848 906.263 243.57 906.263 243.226C906.263 242.883 905.984 242.604 905.641 242.604H899.906Z" fill="white"/>
<path fill-rule="evenodd" clip-rule="evenodd" d="M900.051 243.848H905.496V244.819C905.496 246.323 904.277 247.542 902.773 247.542C901.27 247.542 900.051 246.323 900.051 244.819V243.848ZM901.394 245.152C901.544 245.775 902.105 246.237 902.773 246.237C903.442 246.237 904.003 245.775 904.153 245.152H901.394Z" fill="white"/>
<path d="M682 222C682 246.853 661.853 267 637 267C612.147 267 592 246.853 592 222C592 197.147 612.147 177 637 177C661.853 177 682 197.147 682 222Z" fill="#42AA85"/>
<path fill-rule="evenodd" clip-rule="evenodd" d="M634.086 221.694H651.366C651.145 218.984 650.237 216.367 648.718 214.093C646.956 211.457 644.453 209.403 641.524 208.19C638.595 206.977 635.372 206.659 632.263 207.278C629.153 207.896 626.297 209.423 624.056 211.664C621.814 213.906 620.287 216.762 619.669 219.872C619.05 222.981 619.368 226.204 620.581 229.133C621.794 232.062 623.849 234.565 626.485 236.327C628.758 237.845 631.375 238.754 634.086 238.975V221.694ZM635.39 240.332C634.954 240.332 634.519 240.316 634.086 240.283C631.117 240.059 628.248 239.073 625.76 237.411C622.909 235.506 620.688 232.799 619.376 229.632C618.064 226.465 617.721 222.98 618.389 219.617C619.058 216.255 620.709 213.166 623.133 210.742C625.557 208.318 628.646 206.667 632.008 205.998C635.371 205.329 638.856 205.673 642.023 206.985C645.191 208.297 647.898 210.518 649.802 213.369C651.465 215.856 652.45 218.726 652.674 221.694C652.707 222.127 652.724 222.562 652.724 222.999H635.39V240.332Z" fill="white"/>
<path fill-rule="evenodd" clip-rule="evenodd" d="M637.978 243.478C640.058 243.336 642.105 242.858 644.036 242.057C646.371 241.091 648.492 239.673 650.278 237.887C652.065 236.1 653.482 233.979 654.449 231.645C655.249 229.714 655.727 227.667 655.869 225.587L637.978 225.587L637.978 243.478ZM637.978 244.785C637.545 244.812 637.11 244.826 636.674 244.826L636.674 224.283L657.217 224.283C657.217 224.718 657.204 225.153 657.176 225.587C657.033 227.839 656.519 230.054 655.654 232.144C654.621 234.637 653.108 236.902 651.2 238.809C649.293 240.717 647.028 242.23 644.536 243.262C642.446 244.128 640.23 244.642 637.978 244.785Z" fill="white"/>
<path d="M416 222C416 246.853 395.853 267 371 267C346.147 267 326 246.853 326 222C326 197.147 346.147 177 371 177C395.853 177 416 197.147 416 222Z" fill="#AA9942"/>
<path fill-rule="evenodd" clip-rule="evenodd" d="M353.545 229.989C354.711 229.989 355.656 229.044 355.656 227.879C355.656 226.713 354.711 225.768 353.545 225.768C352.38 225.768 351.435 226.713 351.435 227.879C351.435 229.044 352.38 229.989 353.545 229.989ZM353.545 231.294C355.431 231.294 356.96 229.765 356.96 227.879C356.96 225.993 355.431 224.464 353.545 224.464C351.659 224.464 350.13 225.993 350.13 227.879C350.13 229.765 351.659 231.294 353.545 231.294Z" fill="white"/>
<path fill-rule="evenodd" clip-rule="evenodd" d="M389.107 217.743C390.273 217.743 391.217 216.798 391.217 215.632C391.217 214.467 390.273 213.522 389.107 213.522C387.941 213.522 386.996 214.467 386.996 215.632C386.996 216.798 387.941 217.743 389.107 217.743ZM389.107 219.047C390.993 219.047 392.522 217.518 392.522 215.632C392.522 213.746 390.993 212.217 389.107 212.217C387.221 212.217 385.692 213.746 385.692 215.632C385.692 217.518 387.221 219.047 389.107 219.047Z" fill="white"/>
<path fill-rule="evenodd" clip-rule="evenodd" d="M365.321 217.743C366.486 217.743 367.431 216.798 367.431 215.632C367.431 214.467 366.486 213.522 365.321 213.522C364.155 213.522 363.21 214.467 363.21 215.632C363.21 216.798 364.155 217.743 365.321 217.743ZM365.321 219.047C367.207 219.047 368.736 217.518 368.736 215.632C368.736 213.746 367.207 212.217 365.321 212.217C363.435 212.217 361.906 213.746 361.906 215.632C361.906 217.518 363.435 219.047 365.321 219.047Z" fill="white"/>
<path fill-rule="evenodd" clip-rule="evenodd" d="M377.332 229.989C378.497 229.989 379.442 229.044 379.442 227.879C379.442 226.713 378.497 225.768 377.332 225.768C376.166 225.768 375.221 226.713 375.221 227.879C375.221 229.044 376.166 229.989 377.332 229.989ZM377.332 231.294C379.218 231.294 380.746 229.765 380.746 227.879C380.746 225.993 379.218 224.464 377.332 224.464C375.446 224.464 373.917 225.993 373.917 227.879C373.917 229.765 375.446 231.294 377.332 231.294Z" fill="white"/>
<path fill-rule="evenodd" clip-rule="evenodd" d="M363.083 218.105L355.783 225.406L354.86 224.483L362.161 217.183L363.083 218.105Z" fill="white"/>
<path fill-rule="evenodd" clip-rule="evenodd" d="M375.094 225.406L367.794 218.105L368.716 217.183L376.017 224.483L375.094 225.406Z" fill="white"/>
<path fill-rule="evenodd" clip-rule="evenodd" d="M379.569 225.406L386.87 218.105L387.792 219.027L380.491 226.328L379.569 225.406Z" fill="white"/>
<path d="M152 222C152 246.853 131.853 267 107 267C82.1472 267 62 246.853 62 222C62 197.147 82.1472 177 107 177C131.853 177 152 197.147 152 222Z" fill="#5E5E6C"/>
<path fill-rule="evenodd" clip-rule="evenodd" d="M108.712 216.164V204.391H92V239.609H120.362V216.164H108.712ZM121.667 215.512V240.913H90.6957V203.087H109.364L121.667 215.512ZM110.016 205.6L119.185 214.86H110.016V205.6Z" fill="white"/>
<path d="M102.435 220.37C102.435 219.829 102.873 219.391 103.413 219.391H113.848C114.388 219.391 114.826 219.829 114.826 220.37C114.826 220.91 114.388 221.348 113.848 221.348H103.413C102.873 221.348 102.435 220.91 102.435 220.37Z" fill="white"/>
<path d="M102.435 226.239C102.435 225.699 102.873 225.261 103.413 225.261H113.848C114.388 225.261 114.826 225.699 114.826 226.239C114.826 226.78 114.388 227.218 113.848 227.218H103.413C102.873 227.218 102.435 226.78 102.435 226.239Z" fill="white"/>
<path d="M102.435 232.109C102.435 231.569 102.873 231.131 103.413 231.131H113.848C114.388 231.131 114.826 231.569 114.826 232.109C114.826 232.649 114.388 233.087 113.848 233.087H103.413C102.873 233.087 102.435 232.649 102.435 232.109Z" fill="white"/>
<path d="M97.8697 220.37C97.8697 220.91 97.4317 221.348 96.8914 221.348C96.3511 221.348 95.9131 220.91 95.9131 220.37C95.9131 219.829 96.3511 219.391 96.8914 219.391C97.4317 219.391 97.8697 219.829 97.8697 220.37Z" fill="white"/>
<path d="M97.8697 226.239C97.8697 226.78 97.4317 227.218 96.8914 227.218C96.3511 227.218 95.9131 226.78 95.9131 226.239C95.9131 225.699 96.3511 225.261 96.8914 225.261C97.4317 225.261 97.8697 225.699 97.8697 226.239Z" fill="white"/>
<path d="M97.8697 232.109C97.8697 232.649 97.4317 233.087 96.8914 233.087C96.3511 233.087 95.9131 232.649 95.9131 232.109C95.9131 231.569 96.3511 231.131 96.8914 231.131C97.4317 231.131 97.8697 231.569 97.8697 232.109Z" fill="white"/>
<defs>
<linearGradient id="paint0_linear_1_77" x1="968" y1="205.538" x2="1111" y2="205.538" gradientUnits="userSpaceOnUse">
<stop offset="0.260417" stop-color="#D3A3C1"/>
<stop offset="1" stop-color="#E46B6B"/>
</linearGradient>
<linearGradient id="paint1_linear_1_77" x1="699" y1="202" x2="843" y2="202" gradientUnits="userSpaceOnUse">
<stop stop-color="#85C1AB"/>
<stop offset="0.848958" stop-color="#DE9EC4"/>
</linearGradient>
<linearGradient id="paint2_linear_1_77" x1="433" y1="202" x2="578" y2="202" gradientUnits="userSpaceOnUse">
<stop offset="0.140625" stop-color="#C8B65B"/>
<stop offset="0.817708" stop-color="#85C1AB"/>
</linearGradient>
<linearGradient id="paint3_linear_1_77" x1="312" y1="244.462" x2="169" y2="244.462" gradientUnits="userSpaceOnUse">
<stop offset="0.145833" stop-color="#C8B65B"/>
<stop offset="0.942708" stop-color="#A5A5A5"/>
</linearGradient>
</defs>
</svg>
