<svg width="584" height="418" viewBox="0 0 584 418" fill="none" xmlns="http://www.w3.org/2000/svg">
<path d="M292 58.5C311.83 58.5 331.465 62.3928 349.785 69.9561C368.105 77.5195 384.751 88.6052 398.773 102.58C412.795 116.556 423.917 133.147 431.506 151.406C439.094 169.666 443 189.236 443 209C443 228.764 439.094 248.334 431.506 266.594C423.917 284.853 412.795 301.444 398.773 315.42C384.751 329.395 368.105 340.481 349.785 348.044C331.465 355.607 311.83 359.5 292 359.5C272.17 359.5 252.535 355.607 234.215 348.044C215.895 340.481 199.248 329.395 185.227 315.42C171.205 301.444 160.083 284.853 152.494 266.594C144.906 248.334 141 228.764 141 209C141 189.236 144.906 169.666 152.494 151.406C160.083 133.147 171.205 116.556 185.227 102.58C199.249 88.6052 215.895 77.5194 234.215 69.9561C252.535 62.3928 272.17 58.5 292 58.5L292 58.5Z" stroke="#151A20" stroke-width="16" stroke-linecap="round" stroke-linejoin="round"/>
<path d="M255.321 63.0074C286.326 55.2695 318.995 57.5366 348.624 69.4824C378.254 81.4282 403.316 102.437 420.203 129.483C437.09 156.53 444.931 188.22 442.597 219.991C440.263 251.762 427.874 281.975 407.214 306.281C386.555 330.588 358.689 347.734 327.63 355.25C296.571 362.767 263.919 360.267 234.376 348.11C204.833 335.954 179.922 314.767 163.23 287.601C146.537 260.435 138.924 228.69 141.486 196.936" stroke="#E80054" stroke-width="16" stroke-linecap="round" stroke-linejoin="round"/>
<path d="M247.936 31.4442C289.319 21.1161 333.014 25.4089 371.578 43.5913C410.141 61.7737 441.186 92.7205 459.423 131.159C477.659 169.597 481.96 213.149 471.591 254.393C461.222 295.638 436.825 332.022 402.558 357.349C368.291 382.675 326.273 395.375 283.664 393.285C241.055 391.196 200.491 374.445 168.884 345.889C137.277 317.332 116.582 278.736 110.325 236.676C104.069 194.616 112.638 151.696 134.573 115.228" stroke="#3CE800" stroke-width="16" stroke-linecap="round" stroke-linejoin="round"/>
<path d="M292 87.4424C308.016 87.4424 323.876 90.5866 338.673 96.6954C353.47 102.804 366.915 111.758 378.24 123.046C389.565 134.333 398.549 147.734 404.678 162.482C410.807 177.23 413.962 193.037 413.962 209C413.962 224.963 410.807 240.77 404.678 255.518C398.549 270.266 389.565 283.667 378.24 294.954C366.915 306.242 353.47 315.196 338.673 321.305C323.876 327.414 308.016 330.558 292 330.558C275.984 330.558 260.124 327.414 245.327 321.305C230.53 315.196 217.085 306.242 205.76 294.954C194.435 283.667 185.451 270.266 179.322 255.518C173.193 240.77 170.038 224.963 170.038 209C170.038 193.037 173.193 177.23 179.322 162.482C185.451 147.734 194.435 134.333 205.76 123.046C217.085 111.758 230.53 102.804 245.327 96.6954C260.124 90.5865 275.984 87.4424 292 87.4424L292 87.4424Z" stroke="#151A20" stroke-width="16" stroke-linecap="round" stroke-linejoin="round"/>
<path d="M292 87.4424C320.216 87.4424 347.56 97.1937 369.372 115.035C391.183 132.876 406.113 157.703 411.618 185.285C417.123 212.868 412.862 241.5 399.56 266.302C386.259 291.104 364.741 310.543 338.673 321.305C312.604 332.067 283.598 333.487 256.596 325.324C229.595 317.16 206.269 299.917 190.593 276.534C174.916 253.15 167.86 225.073 170.626 197.085C173.391 169.098 185.808 142.932 205.76 123.046" stroke="#FFC300" stroke-width="16" stroke-linecap="round" stroke-linejoin="round"/>
<path d="M292 116.385C304.203 116.385 316.286 118.78 327.56 123.434C338.834 128.089 349.078 134.911 357.707 143.511C366.335 152.111 373.18 162.321 377.85 173.558C382.52 184.794 384.923 196.837 384.923 209C384.923 221.162 382.52 233.206 377.85 244.442C373.18 255.679 366.335 265.889 357.707 274.489C349.078 283.089 338.834 289.911 327.56 294.565C316.286 299.22 304.203 301.615 292 301.615C279.797 301.615 267.714 299.22 256.44 294.565C245.166 289.911 234.922 283.089 226.293 274.489C217.665 265.889 210.82 255.679 206.15 244.442C201.48 233.206 199.077 221.162 199.077 209C199.077 196.837 201.48 184.794 206.15 173.557C210.82 162.321 217.665 152.111 226.293 143.511C234.922 134.911 245.166 128.089 256.44 123.434C267.714 118.78 279.797 116.385 292 116.385L292 116.385Z" stroke="#151A20" stroke-width="16" stroke-linecap="round" stroke-linejoin="round"/>
<path d="M292 116.385C306.513 116.385 320.824 119.773 333.787 126.277C346.749 132.782 358.003 142.223 366.647 153.842C375.29 165.462 381.082 178.938 383.559 193.191C386.037 207.444 385.13 222.076 380.912 235.917C376.694 249.757 369.282 262.421 359.27 272.892C349.258 283.364 336.924 291.353 323.257 296.218C309.59 301.084 294.969 302.691 280.567 300.912C266.164 299.132 252.38 294.014 240.319 285.969" stroke="#00D5FF" stroke-width="16" stroke-linecap="round" stroke-linejoin="round"/>
<path d="M273.602 186.203V199H270.974V186.203H273.602ZM277.539 186.203V188.269H267.098V186.203H277.539ZM276.95 194.342V194.157C276.95 193.46 277.05 192.818 277.249 192.232C277.448 191.641 277.738 191.128 278.119 190.694C278.5 190.261 278.969 189.924 279.525 189.684C280.082 189.438 280.721 189.314 281.441 189.314C282.162 189.314 282.804 189.438 283.366 189.684C283.929 189.924 284.4 190.261 284.781 190.694C285.168 191.128 285.461 191.641 285.66 192.232C285.859 192.818 285.959 193.46 285.959 194.157V194.342C285.959 195.033 285.859 195.675 285.66 196.267C285.461 196.853 285.168 197.365 284.781 197.805C284.4 198.238 283.932 198.575 283.375 198.815C282.818 199.056 282.18 199.176 281.459 199.176C280.738 199.176 280.097 199.056 279.534 198.815C278.978 198.575 278.506 198.238 278.119 197.805C277.738 197.365 277.448 196.853 277.249 196.267C277.05 195.675 276.95 195.033 276.95 194.342ZM279.481 194.157V194.342C279.481 194.74 279.517 195.112 279.587 195.458C279.657 195.804 279.769 196.108 279.921 196.372C280.079 196.63 280.284 196.832 280.536 196.979C280.788 197.125 281.096 197.198 281.459 197.198C281.811 197.198 282.112 197.125 282.364 196.979C282.616 196.832 282.818 196.63 282.971 196.372C283.123 196.108 283.234 195.804 283.305 195.458C283.381 195.112 283.419 194.74 283.419 194.342V194.157C283.419 193.771 283.381 193.407 283.305 193.067C283.234 192.722 283.12 192.417 282.962 192.153C282.81 191.884 282.607 191.673 282.355 191.521C282.104 191.368 281.799 191.292 281.441 191.292C281.084 191.292 280.779 191.368 280.527 191.521C280.281 191.673 280.079 191.884 279.921 192.153C279.769 192.417 279.657 192.722 279.587 193.067C279.517 193.407 279.481 193.771 279.481 194.157ZM290.046 185.491V199H287.515V185.491H290.046ZM296.04 189.49L291.909 194.201L289.694 196.442L288.771 194.614L290.529 192.382L292.999 189.49H296.04ZM293.412 199L290.6 194.605L292.349 193.076L296.33 199H293.412ZM301.331 199.176C300.593 199.176 299.931 199.059 299.345 198.824C298.759 198.584 298.261 198.253 297.851 197.831C297.446 197.409 297.136 196.92 296.919 196.363C296.702 195.801 296.594 195.203 296.594 194.57V194.219C296.594 193.498 296.696 192.839 296.901 192.241C297.106 191.644 297.399 191.125 297.78 190.686C298.167 190.246 298.636 189.909 299.187 189.675C299.737 189.435 300.358 189.314 301.05 189.314C301.724 189.314 302.321 189.426 302.843 189.648C303.364 189.871 303.801 190.188 304.152 190.598C304.51 191.008 304.779 191.5 304.961 192.074C305.143 192.643 305.233 193.275 305.233 193.973V195.027H297.675V193.34H302.746V193.146C302.746 192.795 302.682 192.481 302.553 192.206C302.43 191.925 302.242 191.702 301.99 191.538C301.738 191.374 301.416 191.292 301.023 191.292C300.689 191.292 300.402 191.365 300.162 191.512C299.922 191.658 299.726 191.863 299.573 192.127C299.427 192.391 299.315 192.701 299.239 193.059C299.169 193.41 299.134 193.797 299.134 194.219V194.57C299.134 194.951 299.187 195.303 299.292 195.625C299.403 195.947 299.559 196.226 299.758 196.46C299.963 196.694 300.209 196.876 300.496 197.005C300.789 197.134 301.12 197.198 301.489 197.198C301.946 197.198 302.371 197.11 302.764 196.935C303.162 196.753 303.505 196.48 303.792 196.117L305.022 197.453C304.823 197.74 304.551 198.016 304.205 198.279C303.865 198.543 303.455 198.76 302.975 198.93C302.494 199.094 301.946 199.176 301.331 199.176ZM309.153 191.521V199H306.622V189.49H308.995L309.153 191.521ZM308.784 193.911H308.099C308.099 193.208 308.189 192.575 308.371 192.013C308.553 191.444 308.808 190.961 309.136 190.562C309.464 190.158 309.854 189.851 310.305 189.64C310.762 189.423 311.271 189.314 311.834 189.314C312.279 189.314 312.687 189.379 313.056 189.508C313.425 189.637 313.741 189.842 314.005 190.123C314.274 190.404 314.479 190.776 314.62 191.239C314.767 191.702 314.84 192.268 314.84 192.936V199H312.291V192.927C312.291 192.505 312.232 192.177 312.115 191.942C311.998 191.708 311.825 191.544 311.597 191.45C311.374 191.351 311.099 191.301 310.771 191.301C310.431 191.301 310.135 191.368 309.883 191.503C309.637 191.638 309.432 191.825 309.268 192.065C309.109 192.3 308.989 192.575 308.907 192.892C308.825 193.208 308.784 193.548 308.784 193.911ZM251.321 231H248.535L248.553 228.943H251.321C252.013 228.943 252.596 228.788 253.07 228.478C253.545 228.161 253.902 227.701 254.143 227.098C254.389 226.494 254.512 225.765 254.512 224.909V224.285C254.512 223.629 254.441 223.052 254.301 222.554C254.166 222.056 253.964 221.637 253.694 221.297C253.425 220.957 253.094 220.702 252.701 220.532C252.309 220.356 251.857 220.269 251.348 220.269H248.482V218.203H251.348C252.203 218.203 252.985 218.35 253.694 218.643C254.409 218.93 255.027 219.343 255.549 219.882C256.07 220.421 256.472 221.065 256.753 221.815C257.04 222.56 257.184 223.389 257.184 224.303V224.909C257.184 225.817 257.04 226.646 256.753 227.396C256.472 228.146 256.07 228.791 255.549 229.33C255.033 229.863 254.415 230.276 253.694 230.569C252.979 230.856 252.188 231 251.321 231ZM250.029 218.203V231H247.393V218.203H250.029ZM261.613 221.49V231H259.073V221.49H261.613ZM258.915 219.012C258.915 218.643 259.044 218.338 259.302 218.098C259.56 217.857 259.905 217.737 260.339 217.737C260.767 217.737 261.109 217.857 261.367 218.098C261.631 218.338 261.763 218.643 261.763 219.012C261.763 219.381 261.631 219.686 261.367 219.926C261.109 220.166 260.767 220.286 260.339 220.286C259.905 220.286 259.56 220.166 259.302 219.926C259.044 219.686 258.915 219.381 258.915 219.012ZM268.847 228.372C268.847 228.19 268.794 228.026 268.688 227.88C268.583 227.733 268.387 227.599 268.1 227.476C267.818 227.347 267.411 227.229 266.878 227.124C266.397 227.019 265.949 226.887 265.533 226.729C265.123 226.564 264.766 226.368 264.461 226.14C264.162 225.911 263.928 225.642 263.758 225.331C263.588 225.015 263.503 224.654 263.503 224.25C263.503 223.852 263.588 223.477 263.758 223.125C263.934 222.773 264.183 222.463 264.505 222.193C264.833 221.918 265.231 221.704 265.7 221.552C266.175 221.394 266.708 221.314 267.3 221.314C268.126 221.314 268.835 221.446 269.427 221.71C270.024 221.974 270.481 222.337 270.798 222.8C271.12 223.257 271.281 223.778 271.281 224.364H268.75C268.75 224.118 268.697 223.898 268.592 223.705C268.492 223.506 268.334 223.351 268.117 223.239C267.906 223.122 267.631 223.063 267.291 223.063C267.01 223.063 266.767 223.113 266.562 223.213C266.356 223.307 266.198 223.436 266.087 223.6C265.981 223.758 265.929 223.934 265.929 224.127C265.929 224.273 265.958 224.405 266.017 224.522C266.081 224.634 266.184 224.736 266.324 224.83C266.465 224.924 266.646 225.012 266.869 225.094C267.098 225.17 267.379 225.24 267.713 225.305C268.398 225.445 269.011 225.63 269.55 225.858C270.089 226.081 270.517 226.386 270.833 226.772C271.149 227.153 271.308 227.654 271.308 228.275C271.308 228.697 271.214 229.084 271.026 229.436C270.839 229.787 270.569 230.095 270.218 230.358C269.866 230.616 269.444 230.818 268.952 230.965C268.466 231.105 267.918 231.176 267.309 231.176C266.424 231.176 265.674 231.018 265.059 230.701C264.449 230.385 263.986 229.983 263.67 229.497C263.359 229.005 263.204 228.501 263.204 227.985H265.604C265.615 228.331 265.703 228.609 265.867 228.82C266.037 229.031 266.251 229.184 266.509 229.277C266.772 229.371 267.057 229.418 267.361 229.418C267.689 229.418 267.962 229.374 268.179 229.286C268.396 229.192 268.56 229.069 268.671 228.917C268.788 228.759 268.847 228.577 268.847 228.372ZM277.609 221.49V223.283H272.072V221.49H277.609ZM273.443 219.144H275.975V228.135C275.975 228.41 276.01 228.621 276.08 228.768C276.156 228.914 276.268 229.017 276.414 229.075C276.561 229.128 276.745 229.154 276.968 229.154C277.126 229.154 277.267 229.148 277.39 229.137C277.519 229.119 277.627 229.102 277.715 229.084L277.724 230.947C277.507 231.018 277.272 231.073 277.021 231.114C276.769 231.155 276.49 231.176 276.186 231.176C275.629 231.176 275.143 231.085 274.727 230.903C274.316 230.716 274 230.417 273.777 230.007C273.555 229.597 273.443 229.058 273.443 228.39V219.144ZM281.582 223.564V231H279.051V221.49H281.433L281.582 223.564ZM284.447 221.429L284.403 223.775C284.28 223.758 284.131 223.743 283.955 223.731C283.785 223.714 283.63 223.705 283.489 223.705C283.132 223.705 282.821 223.752 282.558 223.846C282.3 223.934 282.083 224.065 281.907 224.241C281.737 224.417 281.608 224.631 281.521 224.883C281.438 225.135 281.392 225.422 281.38 225.744L280.87 225.586C280.87 224.971 280.932 224.405 281.055 223.89C281.178 223.368 281.356 222.914 281.591 222.527C281.831 222.141 282.124 221.842 282.47 221.631C282.815 221.42 283.211 221.314 283.656 221.314C283.797 221.314 283.94 221.326 284.087 221.35C284.233 221.367 284.354 221.394 284.447 221.429ZM288.314 221.49V231H285.774V221.49H288.314ZM285.616 219.012C285.616 218.643 285.745 218.338 286.003 218.098C286.261 217.857 286.606 217.737 287.04 217.737C287.468 217.737 287.811 217.857 288.068 218.098C288.332 218.338 288.464 218.643 288.464 219.012C288.464 219.381 288.332 219.686 288.068 219.926C287.811 220.166 287.468 220.286 287.04 220.286C286.606 220.286 286.261 220.166 286.003 219.926C285.745 219.686 285.616 219.381 285.616 219.012ZM290.406 217.5H292.938V228.82L292.683 231H290.406V217.5ZM298.958 226.148V226.333C298.958 227.042 298.882 227.692 298.729 228.284C298.583 228.876 298.354 229.389 298.044 229.822C297.733 230.25 297.347 230.584 296.884 230.824C296.427 231.059 295.888 231.176 295.267 231.176C294.687 231.176 294.183 231.059 293.755 230.824C293.333 230.59 292.979 230.259 292.691 229.831C292.404 229.403 292.173 228.902 291.997 228.328C291.821 227.754 291.689 227.127 291.602 226.447V226.043C291.689 225.363 291.821 224.736 291.997 224.162C292.173 223.588 292.404 223.087 292.691 222.659C292.979 222.231 293.333 221.9 293.755 221.666C294.177 221.432 294.675 221.314 295.249 221.314C295.876 221.314 296.421 221.435 296.884 221.675C297.353 221.909 297.739 222.243 298.044 222.677C298.354 223.104 298.583 223.614 298.729 224.206C298.882 224.792 298.958 225.439 298.958 226.148ZM296.427 226.333V226.148C296.427 225.762 296.397 225.398 296.339 225.059C296.286 224.713 296.192 224.411 296.058 224.153C295.923 223.89 295.738 223.682 295.504 223.529C295.275 223.377 294.979 223.301 294.616 223.301C294.271 223.301 293.978 223.359 293.737 223.477C293.497 223.594 293.298 223.758 293.14 223.969C292.987 224.18 292.873 224.432 292.797 224.725C292.721 225.012 292.674 225.328 292.656 225.674V226.825C292.674 227.288 292.75 227.698 292.885 228.056C293.025 228.407 293.236 228.686 293.518 228.891C293.805 229.09 294.177 229.189 294.634 229.189C294.991 229.189 295.287 229.119 295.521 228.979C295.756 228.838 295.938 228.639 296.066 228.381C296.201 228.123 296.295 227.821 296.348 227.476C296.4 227.124 296.427 226.743 296.427 226.333ZM306.156 228.724V221.49H308.688V231H306.306L306.156 228.724ZM306.438 226.772L307.185 226.755C307.185 227.388 307.111 227.977 306.965 228.521C306.818 229.061 306.599 229.529 306.306 229.928C306.013 230.32 305.644 230.628 305.198 230.851C304.753 231.067 304.229 231.176 303.625 231.176C303.162 231.176 302.734 231.111 302.342 230.982C301.955 230.848 301.621 230.64 301.34 230.358C301.064 230.071 300.848 229.705 300.689 229.26C300.537 228.809 300.461 228.267 300.461 227.634V221.49H302.992V227.651C302.992 227.933 303.024 228.17 303.089 228.363C303.159 228.557 303.256 228.715 303.379 228.838C303.502 228.961 303.646 229.049 303.81 229.102C303.979 229.154 304.167 229.181 304.372 229.181C304.894 229.181 305.304 229.075 305.603 228.864C305.907 228.653 306.121 228.366 306.244 228.003C306.373 227.634 306.438 227.224 306.438 226.772ZM315.279 221.49V223.283H309.742V221.49H315.279ZM311.113 219.144H313.645V228.135C313.645 228.41 313.68 228.621 313.75 228.768C313.826 228.914 313.938 229.017 314.084 229.075C314.23 229.128 314.415 229.154 314.638 229.154C314.796 229.154 314.937 229.148 315.06 229.137C315.188 229.119 315.297 229.102 315.385 229.084L315.394 230.947C315.177 231.018 314.942 231.073 314.69 231.114C314.438 231.155 314.16 231.176 313.855 231.176C313.299 231.176 312.812 231.085 312.396 230.903C311.986 230.716 311.67 230.417 311.447 230.007C311.225 229.597 311.113 229.058 311.113 228.39V219.144ZM319.393 221.49V231H316.853V221.49H319.393ZM316.694 219.012C316.694 218.643 316.823 218.338 317.081 218.098C317.339 217.857 317.685 217.737 318.118 217.737C318.546 217.737 318.889 217.857 319.146 218.098C319.41 218.338 319.542 218.643 319.542 219.012C319.542 219.381 319.41 219.686 319.146 219.926C318.889 220.166 318.546 220.286 318.118 220.286C317.685 220.286 317.339 220.166 317.081 219.926C316.823 219.686 316.694 219.381 316.694 219.012ZM321.08 226.342V226.157C321.08 225.46 321.18 224.818 321.379 224.232C321.578 223.641 321.868 223.128 322.249 222.694C322.63 222.261 323.099 221.924 323.655 221.684C324.212 221.438 324.851 221.314 325.571 221.314C326.292 221.314 326.934 221.438 327.496 221.684C328.059 221.924 328.53 222.261 328.911 222.694C329.298 223.128 329.591 223.641 329.79 224.232C329.989 224.818 330.089 225.46 330.089 226.157V226.342C330.089 227.033 329.989 227.675 329.79 228.267C329.591 228.853 329.298 229.365 328.911 229.805C328.53 230.238 328.062 230.575 327.505 230.815C326.948 231.056 326.31 231.176 325.589 231.176C324.868 231.176 324.227 231.056 323.664 230.815C323.107 230.575 322.636 230.238 322.249 229.805C321.868 229.365 321.578 228.853 321.379 228.267C321.18 227.675 321.08 227.033 321.08 226.342ZM323.611 226.157V226.342C323.611 226.74 323.646 227.112 323.717 227.458C323.787 227.804 323.898 228.108 324.051 228.372C324.209 228.63 324.414 228.832 324.666 228.979C324.918 229.125 325.226 229.198 325.589 229.198C325.94 229.198 326.242 229.125 326.494 228.979C326.746 228.832 326.948 228.63 327.101 228.372C327.253 228.108 327.364 227.804 327.435 227.458C327.511 227.112 327.549 226.74 327.549 226.342V226.157C327.549 225.771 327.511 225.407 327.435 225.067C327.364 224.722 327.25 224.417 327.092 224.153C326.939 223.884 326.737 223.673 326.485 223.521C326.233 223.368 325.929 223.292 325.571 223.292C325.214 223.292 324.909 223.368 324.657 223.521C324.411 223.673 324.209 223.884 324.051 224.153C323.898 224.417 323.787 224.722 323.717 225.067C323.646 225.407 323.611 225.771 323.611 226.157ZM334.123 223.521V231H331.592V221.49H333.965L334.123 223.521ZM333.754 225.911H333.068C333.068 225.208 333.159 224.575 333.341 224.013C333.522 223.444 333.777 222.961 334.105 222.562C334.434 222.158 334.823 221.851 335.274 221.64C335.731 221.423 336.241 221.314 336.804 221.314C337.249 221.314 337.656 221.379 338.025 221.508C338.395 221.637 338.711 221.842 338.975 222.123C339.244 222.404 339.449 222.776 339.59 223.239C339.736 223.702 339.81 224.268 339.81 224.936V231H337.261V224.927C337.261 224.505 337.202 224.177 337.085 223.942C336.968 223.708 336.795 223.544 336.566 223.45C336.344 223.351 336.068 223.301 335.74 223.301C335.4 223.301 335.104 223.368 334.853 223.503C334.606 223.638 334.401 223.825 334.237 224.065C334.079 224.3 333.959 224.575 333.877 224.892C333.795 225.208 333.754 225.548 333.754 225.911Z" fill="white"/>
</svg>
