<svg width="426" height="333" viewBox="0 0 426 333" fill="none" xmlns="http://www.w3.org/2000/svg">
<path d="M424.775 275.5L251.27 105.5L26.5 105.5V275.5L424.775 275.5Z" fill="#087823" stroke="#ABABAB"/>
<g style="mix-blend-mode:plus-darker">
<path d="M278.335 66.6333C249.484 38.9477 208.391 46.5467 185.814 67.4791C169.317 82.7971 143.33 105.008 123.21 104.043C103.263 103.077 80.4594 89.244 55.6776 99.9C31.222 110.396 24.5421 145.115 35.5977 171.661C46.6932 198.301 87.1794 219.953 136.164 240.146C154.159 247.684 173.505 251.464 193.013 251.255C193.013 251.255 237.356 250.796 254.019 240.133C267.066 231.768 272.654 226.273 286.76 204.981C297.416 188.864 304.555 166.207 305.354 144.256C306.36 117.436 299.886 87.3193 278.335 66.6333Z" fill="#35B94E"/>
<path opacity="0.8" d="M278.335 66.6333C249.484 38.9477 208.391 46.5467 185.814 67.4791C169.317 82.7971 143.33 105.008 123.21 104.043C103.263 103.077 80.4594 89.244 55.6776 99.9C31.222 110.396 24.5421 145.115 35.5977 171.661C46.6932 198.301 87.1794 219.953 136.164 240.146C154.159 247.684 173.505 251.464 193.013 251.255C193.013 251.255 237.356 250.796 254.019 240.133C267.066 231.768 272.654 226.273 286.76 204.981C297.416 188.864 304.555 166.207 305.354 144.256C306.36 117.436 299.886 87.3193 278.335 66.6333Z" fill="white"/>
</g>
<path d="M162.111 274.965C230.949 274.965 286.753 271.646 286.753 267.552C286.753 263.458 230.949 260.14 162.111 260.14C93.2733 260.14 37.4692 263.458 37.4692 267.552C37.4692 271.646 93.2733 274.965 162.111 274.965Z" fill="#35B94E"/>
<path opacity="0.6" d="M162.111 274.965C230.949 274.965 286.753 271.646 286.753 267.552C286.753 263.458 230.949 260.14 162.111 260.14C93.2733 260.14 37.4692 263.458 37.4692 267.552C37.4692 271.646 93.2733 274.965 162.111 274.965Z" fill="white"/>
<g style="mix-blend-mode:plus-darker">
<path d="M60.3127 110.496H267.872C269.719 110.496 271.491 111.23 272.798 112.536C274.104 113.843 274.838 115.615 274.838 117.462V254.259H53.353V117.462C53.353 115.616 54.0861 113.845 55.3911 112.539C56.6961 111.233 58.4663 110.498 60.3127 110.496Z" fill="#35B94E" stroke="#263238" stroke-width="0.920603" stroke-miterlimit="10"/>
<path d="M265.854 121.731H62.3374V236.743H265.854V121.731Z" fill="white"/>
<mask id="mask0_106_9" style="mask-type:luminance" maskUnits="userSpaceOnUse" x="62" y="121" width="204" height="116">
<path d="M265.854 121.731H62.3374V236.743H265.854V121.731Z" fill="white"/>
</mask>
<g mask="url(#mask0_106_9)">
<g style="mix-blend-mode:multiply" opacity="0.4">
<path d="M265.854 236.743V138.568L97.5088 236.743H265.854Z" fill="#35B94E"/>
</g>
</g>
<path d="M265.854 121.731H62.3374V236.743H265.854V121.731Z" stroke="#263238" stroke-width="0.690452" stroke-miterlimit="10"/>
<path d="M240.706 247.339H88.4912V254.838H240.706V247.339Z" fill="#35B94E" stroke="#263238" stroke-width="0.691688" stroke-miterlimit="10"/>
<path d="M240.706 250.955H88.4912V254.845H240.706V250.955Z" fill="#35B94E" stroke="#263238" stroke-width="0.691688" stroke-miterlimit="10"/>
<path d="M35.438 259.287C35.438 259.287 37.9421 262.344 45.428 264.842H283.763C283.763 264.842 289.317 263.45 291.821 259.56L35.438 259.287Z" fill="#35B94E" stroke="#263238" stroke-width="0.920603" stroke-miterlimit="10"/>
<path d="M290.562 253.813H36.7298C35.7367 253.813 34.9316 254.618 34.9316 255.611V257.855C34.9316 258.848 35.7367 259.653 36.7298 259.653H290.562C291.556 259.653 292.361 258.848 292.361 257.855V255.611C292.361 254.618 291.556 253.813 290.562 253.813Z" fill="#35B94E" stroke="#263238" stroke-width="0.920603" stroke-miterlimit="10"/>
<path d="M164.049 116.79C165.123 116.79 165.994 115.919 165.994 114.845C165.994 113.771 165.123 112.9 164.049 112.9C162.975 112.9 162.104 113.771 162.104 114.845C162.104 115.919 162.975 116.79 164.049 116.79Z" fill="#263238"/>
<path d="M138.355 112.9H89.737C89.6093 112.9 89.4829 112.875 89.3649 112.826C89.2469 112.777 89.1397 112.706 89.0494 112.616C88.9592 112.525 88.8875 112.418 88.8387 112.3C88.7898 112.182 88.7646 112.056 88.7646 111.928C88.7646 111.8 88.7898 111.674 88.8387 111.556C88.8875 111.438 88.9592 111.331 89.0494 111.24C89.1397 111.15 89.2469 111.078 89.3649 111.03C89.4829 110.981 89.6093 110.956 89.737 110.956H138.355C138.612 110.957 138.859 111.06 139.041 111.242C139.223 111.424 139.326 111.671 139.327 111.928C139.327 112.186 139.225 112.433 139.043 112.616C138.86 112.798 138.613 112.9 138.355 112.9Z" fill="#35B94E" stroke="#263238" stroke-width="0.691688" stroke-miterlimit="10"/>
<path d="M237.516 112.9H188.898C188.64 112.9 188.392 112.798 188.21 112.616C188.028 112.433 187.925 112.186 187.925 111.928C187.927 111.671 188.03 111.424 188.212 111.242C188.394 111.06 188.64 110.957 188.898 110.956H237.516C237.774 110.956 238.021 111.058 238.203 111.24C238.386 111.423 238.488 111.67 238.488 111.928C238.488 112.186 238.386 112.433 238.203 112.616C238.021 112.798 237.774 112.9 237.516 112.9Z" fill="#35B94E" stroke="#263238" stroke-width="0.691688" stroke-miterlimit="10"/>
<path d="M272.933 150.956C272.786 150.956 272.645 150.898 272.54 150.794C272.435 150.691 272.376 150.55 272.374 150.403V134.292C272.376 134.144 272.435 134.003 272.54 133.899C272.644 133.794 272.786 133.735 272.933 133.733C273.081 133.735 273.221 133.794 273.325 133.899C273.428 134.004 273.486 134.145 273.486 134.292V150.403C273.486 150.549 273.428 150.69 273.324 150.794C273.221 150.897 273.08 150.956 272.933 150.956Z" fill="#35B94E" stroke="#263238" stroke-width="0.691688" stroke-miterlimit="10"/>
<path d="M55.4375 150.956C55.3649 150.956 55.2931 150.941 55.226 150.913C55.1589 150.886 55.098 150.845 55.0467 150.794C54.9953 150.742 54.9546 150.681 54.9268 150.614C54.8991 150.547 54.8848 150.475 54.8848 150.403V134.292C54.8848 134.145 54.9428 134.004 55.0463 133.899C55.1497 133.794 55.2903 133.735 55.4375 133.733C55.5854 133.735 55.7267 133.794 55.8312 133.899C55.9358 134.003 55.9953 134.144 55.997 134.292V150.403C55.9952 150.55 55.9355 150.691 55.8308 150.794C55.7261 150.898 55.5848 150.956 55.4375 150.956Z" fill="#35B94E" stroke="#263238" stroke-width="0.691688" stroke-miterlimit="10"/>
</g>
<path d="M207.665 155.178C208.611 154.512 209.63 153.327 209.663 152.074C209.676 151.781 209.627 151.488 209.519 151.215C209.412 150.942 209.248 150.694 209.04 150.488C208.831 150.281 208.581 150.121 208.306 150.017C208.032 149.913 207.738 149.867 207.445 149.883C205.68 150.043 204.115 152.814 203.742 154.352C203.742 154.485 203.476 156.623 203.509 156.617C203.543 156.61 206.546 155.971 207.665 155.178Z" fill="#263238"/>
<path d="M192.421 188.571C192.378 188.334 192.286 188.108 192.15 187.908C192.014 187.709 191.837 187.541 191.631 187.415C191.426 187.289 191.195 187.208 190.956 187.178C190.717 187.148 190.473 187.169 190.243 187.239C188.911 187.699 188.158 190.196 188.178 191.488C188.178 191.568 188.305 192.541 188.378 193.033C188.225 192.654 188.078 192.268 187.925 191.868C187.705 191.289 187.492 190.676 187.259 190.076L186.959 189.124C186.853 188.804 186.786 188.458 186.7 188.165C186.58 187.685 186.48 187.186 186.38 186.686C187.462 186.386 188.492 185.919 189.43 185.301C190.156 184.635 190.895 183.656 190.822 182.637C190.813 182.398 190.754 182.163 190.649 181.948C190.543 181.733 190.393 181.542 190.209 181.389C190.025 181.236 189.811 181.123 189.58 181.058C189.35 180.993 189.108 180.977 188.871 181.012C187.452 181.265 186.36 183.623 186.207 184.902C186.207 184.942 186.207 185.215 186.207 185.568C186.127 185.075 186.04 184.589 185.974 184.089C185.774 182.677 185.621 181.232 185.461 179.787C185.428 179.48 185.388 179.181 185.354 178.881C186.467 178.569 187.527 178.091 188.498 177.462C189.224 176.796 189.963 175.817 189.89 174.798C189.88 174.559 189.82 174.325 189.714 174.11C189.608 173.896 189.459 173.706 189.275 173.553C189.091 173.399 188.877 173.287 188.647 173.221C188.417 173.156 188.175 173.14 187.938 173.173C186.52 173.426 185.428 175.784 185.274 177.063C185.274 177.109 185.274 177.436 185.274 177.795C185.174 177.016 185.068 176.23 184.935 175.458C184.717 174.132 184.412 172.821 184.022 171.535C184.202 171.482 186.446 170.802 187.266 170.09C187.985 169.424 188.731 168.445 188.651 167.426C188.642 167.186 188.583 166.951 188.478 166.736C188.372 166.521 188.222 166.331 188.038 166.177C187.854 166.024 187.64 165.911 187.409 165.846C187.178 165.781 186.937 165.766 186.7 165.801C185.281 166.054 184.189 168.411 184.036 169.69C184.036 169.777 183.996 170.962 184.002 171.382C183.999 171.366 183.999 171.351 184.002 171.335C183.584 170.083 183.056 168.871 182.424 167.712C181.867 166.673 181.249 165.668 180.572 164.702C179.953 163.796 179.334 163.01 178.774 162.318C178.474 161.945 178.188 161.605 177.922 161.299C177.922 161.299 177.442 159.627 177.396 159.52C176.883 158.342 175.198 156.363 173.759 156.51C173.522 156.54 173.294 156.619 173.089 156.744C172.885 156.868 172.709 157.034 172.573 157.23C172.438 157.427 172.345 157.65 172.301 157.885C172.258 158.121 172.264 158.362 172.321 158.595C172.52 159.594 173.506 160.359 174.379 160.779C175.488 161.128 176.645 161.301 177.808 161.292C178.082 161.625 178.368 161.958 178.674 162.371C179.214 163.077 179.82 163.876 180.413 164.788C180.572 165.035 180.732 165.301 180.892 165.554C180.532 165.181 180.033 164.669 179.973 164.629C178.974 163.816 176.57 162.837 175.364 163.623C175.167 163.76 175.001 163.936 174.877 164.142C174.752 164.347 174.673 164.576 174.642 164.814C174.612 165.052 174.632 165.293 174.702 165.523C174.771 165.753 174.888 165.965 175.045 166.147C175.408 166.506 175.844 166.782 176.323 166.958C176.802 167.134 177.313 167.205 177.822 167.166C178.821 167.166 180.712 166.234 181.152 166.034C181.505 166.607 181.818 167.206 182.171 167.852C182.77 169.009 183.264 170.217 183.649 171.462C183.649 171.535 183.649 171.615 183.703 171.688C183.556 171.468 182.67 170.356 182.597 170.27C181.691 169.35 179.407 168.112 178.121 168.764C177.91 168.878 177.726 169.035 177.579 169.225C177.433 169.415 177.329 169.634 177.273 169.867C177.217 170.101 177.211 170.343 177.255 170.579C177.299 170.814 177.392 171.038 177.529 171.235C178.075 172.088 179.274 172.454 180.233 172.527C181.338 172.614 183.629 171.768 183.716 171.735C184.064 172.988 184.331 174.263 184.515 175.551C184.655 176.503 184.762 177.469 184.855 178.448C184.662 178.168 183.829 177.116 183.763 177.049C182.857 176.13 180.572 174.898 179.287 175.544C179.076 175.658 178.891 175.815 178.745 176.005C178.599 176.195 178.494 176.414 178.438 176.647C178.382 176.88 178.376 177.123 178.42 177.358C178.464 177.594 178.558 177.818 178.694 178.015C179.24 178.874 180.439 179.234 181.398 179.307C182.477 179.394 184.675 178.595 184.861 178.528C184.908 178.968 184.948 179.414 184.988 179.86C185.121 181.312 185.241 182.764 185.408 184.196C185.467 184.688 185.541 185.175 185.614 185.661C185.308 185.255 184.728 184.529 184.675 184.469C183.769 183.556 181.485 182.318 180.199 182.97C179.988 183.083 179.803 183.239 179.656 183.428C179.509 183.617 179.404 183.835 179.347 184.068C179.291 184.301 179.284 184.543 179.327 184.778C179.371 185.014 179.464 185.237 179.6 185.434C180.153 186.294 181.352 186.653 182.311 186.726C183.452 186.653 184.575 186.404 185.641 185.987C185.767 186.8 185.907 187.599 186.087 188.378C186.173 188.718 186.24 189.044 186.34 189.377C186.44 189.71 186.52 190.043 186.613 190.336C186.826 191.002 187.019 191.582 187.232 192.181C187.339 192.481 187.445 192.76 187.552 193.053C187.306 192.594 186.886 191.875 186.846 191.815C186.093 190.776 184.022 189.204 182.65 189.65C182.425 189.731 182.219 189.858 182.046 190.024C181.873 190.189 181.736 190.39 181.646 190.612C181.555 190.833 181.513 191.072 181.52 191.311C181.528 191.551 181.586 191.786 181.691 192.001C182.104 192.934 183.236 193.473 184.169 193.693C185.101 193.913 187.426 193.5 187.692 193.446C187.958 194.159 188.225 194.852 188.478 195.498C189.297 197.536 190.05 199.201 190.596 200.359C191.142 201.518 191.481 202.171 191.481 202.171C191.545 202.284 191.65 202.368 191.774 202.406C191.898 202.443 192.032 202.43 192.147 202.371C192.26 202.306 192.343 202.201 192.38 202.078C192.417 201.954 192.405 201.82 192.347 201.705C192.347 201.705 192.008 201.079 191.441 199.94C190.875 198.801 190.109 197.176 189.244 195.178C188.997 194.599 188.744 193.986 188.491 193.353C188.751 193.227 190.782 192.248 191.461 191.435C192.141 190.623 192.647 189.564 192.421 188.571Z" fill="#263238"/>
<path d="M181.152 165.754C181.152 165.754 183.303 164.422 183.923 163.483C184.455 162.677 184.902 161.485 184.589 160.553C184.516 160.325 184.397 160.114 184.238 159.935C184.079 159.757 183.884 159.613 183.666 159.515C183.448 159.416 183.212 159.364 182.973 159.363C182.733 159.362 182.497 159.411 182.278 159.507C180.946 160.12 180.546 162.684 180.712 163.963C180.712 164.069 181.152 165.767 181.152 165.754Z" fill="#263238"/>
<path d="M213.932 155.178C215.044 156.004 218.095 156.617 218.095 156.617C218.095 156.617 217.895 154.485 217.862 154.352C217.509 152.814 215.93 150.043 214.165 149.883C213.872 149.866 213.578 149.911 213.303 150.015C213.028 150.118 212.778 150.279 212.569 150.485C212.36 150.692 212.196 150.94 212.089 151.214C211.982 151.488 211.934 151.781 211.948 152.074C211.961 153.293 212.98 154.445 213.932 155.178Z" fill="#263238"/>
<path d="M226.586 184.715C224.822 184.788 223.097 187.472 222.67 188.997C222.67 189.084 222.484 190.09 222.391 190.729C222.391 190.343 222.391 189.977 222.391 189.584C222.391 188.804 222.351 188.025 222.317 187.193C222.317 186.793 222.264 186.387 222.231 185.974C222.197 185.561 222.138 185.135 222.091 184.715C221.964 183.736 221.791 182.757 221.591 181.765C222.257 181.765 224.695 181.691 225.767 181.199C226.84 180.706 228.065 179.773 228.331 178.535C228.406 178.25 228.419 177.952 228.37 177.662C228.321 177.372 228.211 177.095 228.047 176.85C227.884 176.606 227.67 176.398 227.421 176.242C227.171 176.086 226.891 175.984 226.6 175.944C224.842 175.737 222.73 178.135 222.078 179.58C222.038 179.667 221.685 180.752 221.505 181.352C221.378 180.759 221.258 180.166 221.119 179.574C220.699 177.855 220.219 176.13 219.753 174.405C219.607 173.879 219.474 173.346 219.334 172.82C219.713 172.82 222.484 172.82 223.656 172.248C224.828 171.675 225.954 170.822 226.22 169.584C226.293 169.299 226.306 169.002 226.256 168.712C226.207 168.422 226.097 168.146 225.933 167.901C225.77 167.657 225.557 167.449 225.308 167.293C225.059 167.136 224.78 167.034 224.489 166.993C222.73 166.793 220.626 169.191 219.973 170.629C219.92 170.736 219.414 172.301 219.307 172.707C219.001 171.542 218.708 170.383 218.468 169.224C218.136 167.667 217.907 166.089 217.782 164.502C217.988 164.502 220.919 164.502 222.131 163.929C223.203 163.436 224.429 162.504 224.702 161.265C224.774 160.98 224.785 160.683 224.735 160.393C224.684 160.103 224.574 159.827 224.41 159.583C224.246 159.338 224.032 159.131 223.783 158.975C223.534 158.818 223.255 158.716 222.963 158.674C221.205 158.475 219.101 160.872 218.448 162.311C218.395 162.424 217.855 164.109 217.782 164.415C217.782 164.329 217.782 164.229 217.782 164.136C217.693 162.538 217.746 160.935 217.942 159.347C218.042 158.468 218.182 157.629 218.341 156.823C218.914 156.883 221.458 157.109 222.624 156.716C223.789 156.324 225.068 155.558 225.468 154.372C225.57 154.097 225.614 153.803 225.596 153.51C225.578 153.217 225.499 152.931 225.363 152.67C225.227 152.41 225.038 152.181 224.809 151.998C224.579 151.815 224.313 151.682 224.029 151.608C222.297 151.215 219.94 153.366 219.134 154.725C219.094 154.798 218.728 155.598 218.468 156.19C218.541 155.824 218.614 155.444 218.694 155.098C218.994 153.766 219.36 152.614 219.667 151.575C219.853 150.989 220.033 150.456 220.206 149.963C220.786 149.73 223.103 148.778 223.942 147.905C224.782 147.033 225.574 145.747 225.381 144.515C225.346 144.223 225.251 143.942 225.1 143.689C224.949 143.436 224.747 143.218 224.506 143.049C224.265 142.88 223.992 142.764 223.703 142.708C223.414 142.652 223.117 142.657 222.83 142.724C221.119 143.17 220.02 146.167 219.926 147.745C219.926 147.879 220.046 150.03 220.073 150.016H220.106C219.933 150.489 219.747 150.996 219.553 151.555C219.214 152.587 218.834 153.759 218.508 155.065C218.139 156.465 217.852 157.886 217.649 159.321C217.416 160.926 217.327 162.548 217.382 164.169V164.229C217.209 163.743 216.676 162.391 216.623 162.298C215.877 160.899 213.613 158.648 211.874 158.968C211.485 159.037 211.127 159.226 210.849 159.507C210.572 159.224 210.213 159.036 209.823 158.968C208.085 158.655 205.827 160.906 205.081 162.298C205.028 162.391 204.489 163.743 204.315 164.229C204.315 164.229 204.315 164.189 204.315 164.169C204.368 162.548 204.277 160.925 204.042 159.321C203.838 157.887 203.553 156.466 203.19 155.065C202.864 153.733 202.484 152.587 202.138 151.555C201.944 150.996 201.765 150.489 201.585 150.016H201.618C201.618 150.016 201.771 147.879 201.765 147.745C201.678 146.167 200.572 143.17 198.861 142.724C198.574 142.657 198.277 142.652 197.988 142.708C197.699 142.764 197.426 142.88 197.185 143.049C196.944 143.218 196.742 143.436 196.591 143.689C196.44 143.942 196.345 144.223 196.31 144.515C196.117 145.747 196.929 147.059 197.749 147.905C198.568 148.751 200.905 149.73 201.485 149.963C201.658 150.456 201.838 150.989 202.031 151.575C202.351 152.614 202.697 153.793 202.997 155.098C203.077 155.444 203.15 155.824 203.23 156.19C202.97 155.598 202.61 154.798 202.564 154.725C201.758 153.393 199.4 151.215 197.675 151.608C197.391 151.681 197.124 151.813 196.894 151.996C196.664 152.179 196.474 152.408 196.339 152.669C196.203 152.93 196.124 153.216 196.106 153.51C196.089 153.803 196.133 154.097 196.237 154.372C196.636 155.558 197.955 156.37 199.074 156.716C200.193 157.063 202.784 156.883 203.363 156.823C203.516 157.629 203.656 158.468 203.756 159.347C203.954 160.935 204.009 162.538 203.922 164.136C203.922 164.229 203.922 164.329 203.889 164.415C203.816 164.109 203.27 162.417 203.223 162.311C202.557 160.872 200.459 158.475 198.701 158.674C198.41 158.716 198.131 158.818 197.882 158.975C197.633 159.131 197.42 159.338 197.256 159.583C197.093 159.827 196.983 160.104 196.933 160.393C196.884 160.683 196.896 160.98 196.969 161.265C197.236 162.484 198.461 163.416 199.534 163.929C200.746 164.489 203.676 164.502 203.882 164.502C203.751 166.094 203.517 167.675 203.183 169.237C202.937 170.396 202.644 171.555 202.337 172.72C202.231 172.314 201.725 170.722 201.671 170.643C201.005 169.204 198.907 166.806 197.149 167.006C196.858 167.047 196.579 167.15 196.33 167.306C196.081 167.463 195.868 167.67 195.704 167.915C195.541 168.159 195.431 168.435 195.382 168.725C195.332 169.015 195.344 169.312 195.418 169.597C195.684 170.816 196.909 171.748 197.982 172.261C199.154 172.8 201.931 172.834 202.304 172.834C202.164 173.36 202.031 173.893 201.884 174.419C201.418 176.144 200.939 177.869 200.552 179.587C200.406 180.18 200.286 180.772 200.16 181.365C199.98 180.766 199.627 179.68 199.587 179.594C198.921 178.148 196.823 175.751 195.065 175.957C194.774 175.999 194.494 176.101 194.245 176.257C193.996 176.414 193.783 176.621 193.62 176.866C193.456 177.11 193.346 177.386 193.297 177.676C193.248 177.966 193.26 178.263 193.333 178.548C193.599 179.767 194.825 180.692 195.897 181.212C196.969 181.731 199.38 181.771 200.073 181.778C199.873 182.77 199.7 183.776 199.573 184.728C199.527 185.148 199.454 185.581 199.434 185.987C199.414 186.393 199.374 186.806 199.347 187.206C199.314 188.038 199.287 188.818 199.28 189.597C199.28 189.99 199.28 190.356 199.28 190.742C199.187 190.076 199.021 189.097 198.994 189.011C198.568 187.486 196.85 184.802 195.078 184.728C194.784 184.726 194.493 184.786 194.224 184.903C193.955 185.02 193.713 185.193 193.515 185.409C193.316 185.626 193.166 185.882 193.072 186.16C192.979 186.439 192.945 186.734 192.973 187.026C193.053 188.278 194.126 189.377 195.111 190.03C196.097 190.682 198.841 191.182 199.274 191.249C199.274 192.188 199.274 193.093 199.274 193.946C199.347 196.643 199.507 198.881 199.64 200.453C199.773 202.024 199.886 202.917 199.886 202.917C199.925 203.068 200.017 203.199 200.147 203.285C200.276 203.371 200.433 203.406 200.587 203.382C200.741 203.359 200.88 203.279 200.979 203.159C201.077 203.038 201.127 202.886 201.119 202.73C201.119 202.73 200.992 201.865 200.826 200.313C200.659 198.761 200.453 196.55 200.319 193.886C200.286 193.12 200.253 192.301 200.233 191.462C200.672 191.422 203.37 191.149 204.469 190.523C205.567 189.897 206.64 188.904 206.8 187.665C206.847 187.375 206.832 187.079 206.757 186.794C206.683 186.51 206.549 186.245 206.365 186.016C206.181 185.787 205.951 185.599 205.69 185.464C205.428 185.329 205.142 185.251 204.848 185.235C203.077 185.188 201.185 187.759 200.659 189.231C200.626 189.324 200.353 190.496 200.233 191.095C200.233 190.589 200.233 190.09 200.233 189.557C200.233 188.804 200.233 187.998 200.233 187.219C200.233 186.82 200.279 186.413 200.299 186C200.319 185.588 200.373 185.188 200.406 184.782C200.473 184.176 200.566 183.563 200.666 182.944C201.458 182.984 203.716 183.05 204.775 182.644C205.834 182.238 207.166 181.372 207.506 180.173C207.597 179.894 207.628 179.598 207.598 179.306C207.568 179.013 207.476 178.731 207.329 178.476C207.182 178.222 206.983 178.001 206.745 177.829C206.507 177.656 206.235 177.536 205.947 177.476C204.209 177.156 201.951 179.414 201.199 180.806L200.905 181.532C201.012 180.932 201.125 180.333 201.258 179.733C201.631 178.022 202.071 176.29 202.504 174.552L202.764 173.466C203.43 173.5 205.88 173.6 206.993 173.173C208.105 172.747 209.384 171.901 209.73 170.702C209.82 170.423 209.851 170.127 209.819 169.835C209.788 169.542 209.696 169.26 209.548 169.005C209.4 168.751 209.201 168.531 208.963 168.358C208.724 168.186 208.453 168.066 208.165 168.005C206.427 167.685 204.169 169.943 203.416 171.335C203.416 171.388 203.243 171.755 203.077 172.174C203.296 171.229 203.503 170.283 203.683 169.337C203.998 167.717 204.203 166.077 204.295 164.429C204.668 164.429 207.446 164.602 208.651 164.136C209.497 163.826 210.252 163.311 210.849 162.637C211.446 163.311 212.201 163.826 213.047 164.136C214.252 164.602 217.043 164.449 217.402 164.429C217.498 166.077 217.703 167.716 218.015 169.337C218.195 170.283 218.401 171.229 218.621 172.174C218.455 171.755 218.308 171.388 218.281 171.335C217.535 169.943 215.278 167.685 213.533 168.005C213.245 168.065 212.973 168.186 212.735 168.358C212.497 168.531 212.298 168.751 212.151 169.006C212.004 169.26 211.912 169.543 211.882 169.835C211.851 170.128 211.883 170.423 211.974 170.702C212.321 171.901 213.606 172.747 214.705 173.173C215.804 173.6 218.281 173.5 218.934 173.466C219.021 173.833 219.107 174.192 219.2 174.552C219.627 176.29 220.066 178.022 220.446 179.733C220.579 180.333 220.686 180.932 220.799 181.532C220.652 181.165 220.526 180.866 220.499 180.806C219.753 179.414 217.496 177.156 215.751 177.476C215.463 177.536 215.191 177.656 214.953 177.829C214.715 178.001 214.516 178.222 214.369 178.476C214.222 178.731 214.13 179.013 214.1 179.306C214.069 179.598 214.101 179.894 214.192 180.173C214.538 181.372 215.824 182.218 216.923 182.644C218.022 183.07 220.253 182.984 221.039 182.944C221.132 183.563 221.232 184.176 221.292 184.782C221.332 185.188 221.392 185.581 221.405 186C221.418 186.42 221.445 186.82 221.465 187.219C221.465 187.998 221.465 188.804 221.465 189.557C221.465 190.09 221.465 190.589 221.465 191.095C221.338 190.496 221.065 189.324 221.032 189.231C220.506 187.739 218.614 185.168 216.843 185.235C216.549 185.251 216.263 185.329 216.002 185.464C215.74 185.599 215.51 185.787 215.326 186.016C215.142 186.245 215.008 186.51 214.934 186.794C214.859 187.079 214.844 187.375 214.891 187.665C215.051 188.904 216.223 189.937 217.222 190.523C218.221 191.109 221.019 191.422 221.458 191.462C221.458 192.301 221.412 193.12 221.372 193.886C221.245 196.55 221.039 198.768 220.872 200.313C220.706 201.858 220.572 202.73 220.572 202.73C220.564 202.886 220.614 203.038 220.712 203.159C220.811 203.279 220.95 203.359 221.104 203.382C221.258 203.406 221.415 203.371 221.544 203.285C221.674 203.199 221.766 203.068 221.805 202.917C221.805 202.917 221.918 202.018 222.058 200.453C222.197 198.888 222.351 196.643 222.417 193.946C222.417 193.093 222.451 192.188 222.451 191.249C222.883 191.182 225.554 190.736 226.62 190.03C227.685 189.324 228.678 188.278 228.751 187.026C228.782 186.728 228.748 186.426 228.652 186.141C228.556 185.857 228.4 185.597 228.195 185.377C227.99 185.158 227.74 184.986 227.463 184.872C227.185 184.757 226.886 184.704 226.586 184.715Z" fill="#263238"/>
<path d="M67.3927 218.601C67.3927 218.601 67.5059 223.123 68.2718 225.548C68.8285 227.207 69.496 228.826 70.2698 230.396C70.2698 230.396 67.406 231.941 66.0807 232.054C64.7553 232.168 62.9971 226.207 62.9971 222.131C62.9971 218.055 64.5289 216.836 67.3927 218.601Z" fill="white" stroke="#263238" stroke-width="0.48509" stroke-linecap="round" stroke-linejoin="round"/>
<path d="M59.4073 206.753C59.4073 206.753 64.0693 206.58 65.8475 207.905C67.6257 209.231 68.2717 215.071 68.8245 217.389L69.3773 219.707C68.0803 220.218 66.7439 220.624 65.3813 220.919C64.8619 220.957 64.3457 221.031 63.8362 221.139C63.8362 221.139 62.4309 213.12 60.7792 210.776C59.944 209.57 59.0225 208.425 58.022 207.352C58.022 207.352 57.2761 206.46 59.4073 206.753Z" fill="white" stroke="#263238" stroke-width="0.48509" stroke-linecap="round" stroke-linejoin="round"/>
<path d="M55.5974 199.633C55.2123 201.109 54.6179 202.522 53.8325 203.829C52.5005 206.034 51.9544 207.572 47.8784 207.685C43.8025 207.799 41.7046 211.122 39.9597 221.025C38.2148 230.929 37.2025 241.865 40.1795 248.811C43.1565 255.757 51.9477 255.078 57.6886 253C63.4295 250.922 64.7482 244.402 64.8548 237.349C64.9613 230.296 64.968 219.154 63.8624 213.526C62.7569 207.899 59.5667 206.693 58.1282 206.254C56.6896 205.814 58.5744 203.163 58.5744 203.163L55.5974 199.633Z" fill="white"/>
<mask id="mask1_106_9" style="mask-type:luminance" maskUnits="userSpaceOnUse" x="38" y="199" width="27" height="56">
<path d="M55.5974 199.633C55.2123 201.109 54.6179 202.522 53.8325 203.829C52.5005 206.034 51.9544 207.572 47.8784 207.685C43.8025 207.799 41.7046 211.122 39.9597 221.025C38.2148 230.929 37.2025 241.865 40.1795 248.811C43.1565 255.757 51.9477 255.078 57.6886 253C63.4295 250.922 64.7482 244.402 64.8548 237.349C64.9613 230.296 64.968 219.154 63.8624 213.526C62.7569 207.899 59.5667 206.693 58.1282 206.254C56.6896 205.814 58.5744 203.163 58.5744 203.163L55.5974 199.633Z" fill="white"/>
</mask>
<g mask="url(#mask1_106_9)">
<g style="mix-blend-mode:multiply" opacity="0.4">
<path d="M43.9556 221.272C43.9556 221.272 42.9832 223.936 44.7082 226.007C46.4331 228.078 50.7022 227.086 49.8763 228.052C49.0505 229.017 45.3542 230.21 44.7082 231.175C44.5189 231.419 44.4074 231.714 44.3884 232.021C44.3694 232.329 44.4437 232.635 44.6016 232.9C44.6016 232.9 41.205 233.506 40.9652 232.934C40.7255 232.361 42.9632 224.335 42.9632 224.335L43.9556 221.272Z" fill="#35B94E"/>
</g>
<g style="mix-blend-mode:multiply" opacity="0.4">
<path d="M44.9947 235.917C44.9947 235.917 42.6304 238.501 42.7369 239.247C42.8435 239.993 44.9947 238.281 44.5684 239.354C44.1422 240.426 42.304 242.158 41.7646 243.017C41.2251 243.876 39.1006 245.401 39.1006 245.401L38.3413 239.574L38.1948 238.555L44.9947 235.917Z" fill="#35B94E"/>
</g>
</g>
<path d="M55.5974 199.633C55.2123 201.109 54.6179 202.522 53.8325 203.829C52.5005 206.034 51.9544 207.572 47.8784 207.685C43.8025 207.799 41.7046 211.122 39.9597 221.025C38.2148 230.929 37.2025 241.865 40.1795 248.811C43.1565 255.757 51.9477 255.078 57.6886 253C63.4295 250.922 64.7482 244.402 64.8548 237.349C64.9613 230.296 64.968 219.154 63.8624 213.526C62.7569 207.899 59.5667 206.693 58.1282 206.254C56.6896 205.814 58.5744 203.163 58.5744 203.163L55.5974 199.633Z" stroke="#263238" stroke-width="0.48509" stroke-linecap="round" stroke-linejoin="round"/>
<path d="M59.4073 206.753C58.9952 206.552 58.5675 206.385 58.1286 206.254C56.6967 205.814 58.5748 203.163 58.5748 203.163L55.5978 199.633C55.2126 201.109 54.6183 202.522 53.8329 203.829C52.7073 205.701 52.1346 207.093 49.4839 207.539C50.3246 208.75 50.9384 210.104 51.2954 211.535C51.9614 214.405 53.3866 219.034 56.0373 217.935C58.5548 216.89 60.4662 210.849 59.4073 206.753Z" fill="white"/>
<mask id="mask2_106_9" style="mask-type:luminance" maskUnits="userSpaceOnUse" x="49" y="199" width="11" height="20">
<path d="M59.4073 206.753C58.9952 206.552 58.5675 206.385 58.1286 206.254C56.6967 205.814 58.5748 203.163 58.5748 203.163L55.5978 199.633C55.2126 201.109 54.6183 202.522 53.8329 203.829C52.7073 205.701 52.1346 207.093 49.4839 207.539C50.3246 208.75 50.9384 210.104 51.2954 211.535C51.9614 214.405 53.3866 219.034 56.0373 217.935C58.5548 216.89 60.4662 210.849 59.4073 206.753Z" fill="white"/>
</mask>
<g mask="url(#mask2_106_9)">
<g style="mix-blend-mode:multiply" opacity="0.4">
<path d="M52.5343 207.486C51.836 207.982 51.056 208.351 50.23 208.578L49.564 207.439C49.564 207.439 52.3145 207.779 55.0651 201.445C55.6633 202.618 56.5085 203.647 57.5426 204.462L54.2593 204.882" fill="#35B94E"/>
</g>
</g>
<path d="M59.4073 206.753C58.9952 206.552 58.5675 206.385 58.1286 206.254C56.6967 205.814 58.5748 203.163 58.5748 203.163L55.5978 199.633C55.2126 201.109 54.6183 202.522 53.8329 203.829C52.7073 205.701 52.1346 207.093 49.4839 207.539C50.3246 208.75 50.9384 210.104 51.2954 211.535C51.9614 214.405 53.3866 219.034 56.0373 217.935C58.5548 216.89 60.4662 210.849 59.4073 206.753Z" stroke="#263238" stroke-width="0.48509" stroke-linecap="round" stroke-linejoin="round"/>
<path d="M44.229 220.246L47.3992 217.429" stroke="#263238" stroke-width="0.48509" stroke-linecap="round" stroke-linejoin="round"/>
<path d="M47.8784 207.685C47.8784 207.685 48.8108 208.964 49.5168 212.667C50.2227 216.37 52.334 219.72 54.4518 220.419C56.5697 221.119 57.622 220.419 57.622 220.419" stroke="#263238" stroke-width="0.48509" stroke-linecap="round" stroke-linejoin="round"/>
<path d="M37.4026 219.927C37.4026 219.927 35.7509 234.579 35.6377 237.123C35.5244 239.667 36.5168 239.001 38.1751 238.561C39.8335 238.122 49.3106 233.899 51.4951 233.153C53.6796 232.407 54.0326 232.161 55.7975 232.381C57.3424 232.612 58.8987 232.761 60.4595 232.827C61.565 232.827 60.3463 230.289 58.6946 229.85C57.0429 229.41 57.1495 229.517 55.278 229.956C53.4065 230.396 50.4229 231.721 47.2261 232.381C44.0293 233.04 41.272 233.266 40.9457 232.933C40.6193 232.6 42.9437 223.01 42.9437 223.01L37.4026 219.927Z" fill="white" stroke="#263238" stroke-width="0.48509" stroke-linecap="round" stroke-linejoin="round"/>
<path d="M49.4838 207.539C48.2545 207.686 47.0127 207.697 45.7809 207.572C44.6541 207.492 43.5231 207.648 42.46 208.03C41.3969 208.412 40.4252 209.011 39.6071 209.79C37.8422 211.548 36.2771 217.282 35.6111 218.721C34.9451 220.16 34.7319 220.812 34.7319 220.812L42.8904 224.342L46.307 214.638" fill="white"/>
<mask id="mask3_106_9" style="mask-type:luminance" maskUnits="userSpaceOnUse" x="34" y="207" width="16" height="18">
<path d="M49.4838 207.539C48.2545 207.686 47.0127 207.697 45.7809 207.572C44.6541 207.492 43.5231 207.648 42.46 208.03C41.3969 208.412 40.4252 209.011 39.6071 209.79C37.8422 211.548 36.2771 217.282 35.6111 218.721C34.9451 220.16 34.7319 220.812 34.7319 220.812L42.8904 224.342L46.307 214.638" fill="white"/>
</mask>
<g mask="url(#mask3_106_9)">
<g style="mix-blend-mode:multiply" opacity="0.4">
<path d="M49.3973 207.466C47.7937 207.638 46.1814 207.716 44.5688 207.699C43.5946 207.713 42.6356 207.942 41.7605 208.371C40.8855 208.799 40.116 209.416 39.5072 210.176C37.9953 211.901 34.8984 220.746 34.8984 220.746L36.7965 221.558C36.7965 221.558 38.8611 211.901 41.2254 210.396C43.304 209.157 45.7013 208.557 48.1185 208.671C48.7845 208.671 49.5305 208.624 50.0033 208.578L49.3973 207.466Z" fill="#35B94E"/>
</g>
</g>
<path d="M49.4838 207.539C48.2545 207.686 47.0127 207.697 45.7809 207.572C44.6541 207.492 43.5231 207.648 42.46 208.03C41.3969 208.412 40.4252 209.011 39.6071 209.79C37.8422 211.548 36.2771 217.282 35.6111 218.721C34.9451 220.16 34.7319 220.812 34.7319 220.812L42.8904 224.342L46.307 214.638" stroke="#263238" stroke-width="0.48509" stroke-linecap="round" stroke-linejoin="round"/>
<path d="M39.1143 244.422C39.1143 244.422 42.4443 241.425 44.7553 241.252" stroke="#263238" stroke-width="0.48509" stroke-linecap="round" stroke-linejoin="round"/>
<path d="M45.1081 239.813C43.471 240.535 41.8806 241.358 40.3462 242.277" stroke="#263238" stroke-width="0.48509" stroke-linecap="round" stroke-linejoin="round"/>
<path d="M65.7556 196.563C67.0567 191.394 65.7057 186.599 62.738 185.851C59.7703 185.104 56.3098 188.689 55.0087 193.857C53.7076 199.026 55.0586 203.821 58.0263 204.568C60.994 205.315 64.4545 201.731 65.7556 196.563Z" fill="white"/>
<mask id="mask4_106_9" style="mask-type:luminance" maskUnits="userSpaceOnUse" x="54" y="185" width="13" height="20">
<path d="M65.7556 196.563C67.0567 191.394 65.7057 186.599 62.738 185.851C59.7703 185.104 56.3098 188.689 55.0087 193.857C53.7076 199.026 55.0586 203.821 58.0263 204.568C60.994 205.315 64.4545 201.731 65.7556 196.563Z" fill="white"/>
</mask>
<g mask="url(#mask4_106_9)">
<g style="mix-blend-mode:multiply" opacity="0.4">
<path d="M57.4627 204.369C57.0897 203.623 56.5969 201.831 56.9498 200.699C57.4893 198.981 60.3931 197.049 60.3931 197.049C60.3931 197.049 59.0611 197.369 57.7291 197.576C56.3971 197.782 54.5522 198.082 54.5522 198.082L55.0118 201.305C55.6312 202.757 56.3837 203.943 57.4627 204.369Z" fill="#35B94E"/>
</g>
</g>
<path d="M65.7556 196.563C67.0567 191.394 65.7057 186.599 62.738 185.851C59.7703 185.104 56.3098 188.689 55.0087 193.857C53.7076 199.026 55.0586 203.821 58.0263 204.568C60.994 205.315 64.4545 201.731 65.7556 196.563Z" stroke="#263238" stroke-width="0.48509" stroke-linecap="round" stroke-linejoin="round"/>
<g style="mix-blend-mode:multiply" opacity="0.4">
<path d="M55.0514 201.592C54.5453 202.591 52.9735 205.707 51.3485 206.733C50.8898 207.029 50.3891 207.253 49.8633 207.399" fill="#35B94E"/>
</g>
<g style="mix-blend-mode:multiply" opacity="0.4">
<path d="M57.7021 217.935C57.7021 217.935 58.135 224.069 57.7021 225.581C57.2692 227.093 55.5509 226.979 56.4101 227.839C57.3459 228.618 58.3565 229.303 59.4271 229.883L60.9322 231.395L61.2719 229.104C61.2719 229.104 60.193 229.43 59.114 225.661C58.4254 223.13 57.9531 220.546 57.7021 217.935Z" fill="#35B94E"/>
</g>
<path d="M62.8306 197.895C62.4806 198.402 62.2526 198.984 62.1646 199.594C62.1646 199.793 62.1646 199.973 62.1646 200.12C62.1705 200.19 62.1612 200.26 62.1373 200.326C62.1134 200.392 62.0755 200.452 62.0261 200.502C61.9767 200.552 61.9171 200.591 61.8513 200.616C61.7855 200.641 61.7152 200.651 61.6451 200.646L60.8525 200.586" stroke="#263238" stroke-width="0.48509" stroke-linecap="round" stroke-linejoin="round"/>
<path d="M59.4404 202.184C59.0722 202.225 58.7023 202.124 58.4064 201.901C58.1105 201.678 57.9109 201.351 57.8486 200.985" stroke="#263238" stroke-width="0.48509" stroke-linecap="round" stroke-linejoin="round"/>
<path d="M60.639 197.695L60.2394 198.495C60.0059 198.606 59.7421 198.637 59.4891 198.583C59.2361 198.529 59.0082 198.392 58.8408 198.195" stroke="#263238" stroke-width="0.48509" stroke-linecap="round" stroke-linejoin="round"/>
<path d="M63.8226 198.894L63.2299 199.693C63.2299 199.693 62.4307 199.693 62.4307 199.094" stroke="#263238" stroke-width="0.48509" stroke-linecap="round" stroke-linejoin="round"/>
<path d="M66.9795 191.808C68.3115 187.885 65.0681 183.816 60.2263 183.903C55.3845 183.989 51.9945 188.724 50.3895 191.968C48.8885 193.472 47.5981 195.172 46.5533 197.023C44.5553 200.439 44.5553 202.424 43.0235 204.628C41.4917 206.833 36.9629 206.946 34.3122 209.817C31.6615 212.687 31.6482 215.99 32.8803 218.195C34.1124 220.399 34.8783 223.263 33.3199 225.248C31.7614 227.233 30.2363 229.91 31.4484 234.405C31.6764 235.409 32.2054 236.319 32.9647 237.015C33.724 237.71 34.6775 238.156 35.6975 238.295C35.631 237.919 35.6108 237.537 35.6376 237.156C35.7241 235.158 36.7365 225.96 37.1827 221.891L34.7584 220.839C34.7584 220.839 34.9782 220.173 35.6376 218.748C36.2969 217.322 37.842 211.575 39.6336 209.817C40.4523 209.039 41.4242 208.441 42.4873 208.06C43.5503 207.679 44.6811 207.524 45.8074 207.606C47.0392 207.73 48.281 207.719 49.5103 207.572C50.2529 207.482 50.9623 207.212 51.5772 206.786C52.1922 206.36 52.6943 205.791 53.0401 205.128L53.2133 204.842V204.808C53.3998 204.502 53.5863 204.176 53.7927 203.836C54.2709 203.03 54.6808 202.186 55.0182 201.312C54.682 200.27 54.5024 199.183 54.4854 198.088C56.6565 198.015 62.6638 197.482 65.7008 193.913C65.8806 193.693 66.0471 193.473 66.1936 193.247C66.1503 194.37 65.9895 195.486 65.7141 196.577C65.1537 199.081 63.8898 201.373 62.0711 203.183L61.7514 203.456L61.5516 203.616C61.4517 203.689 61.3585 203.763 61.2586 203.823C61.1884 203.874 61.115 203.921 61.0388 203.962C60.9485 204.023 60.8552 204.078 60.7591 204.129L60.526 204.249L60.2463 204.369L60.0132 204.455L59.7334 204.542L59.5003 204.602C59.0028 204.715 58.4861 204.715 57.9885 204.602L57.7954 204.535C57.5834 204.933 57.5152 205.392 57.6022 205.834C57.6365 205.945 57.6995 206.046 57.7848 206.125C57.8701 206.205 57.9748 206.26 58.0884 206.287C58.5159 206.415 58.9324 206.578 59.3338 206.773C59.0802 209.465 58.635 212.136 58.0018 214.765C56.8963 219.394 58.1084 223.803 59.4337 226.999C60.7591 230.196 64.835 232.181 66.2669 230.329C67.6988 228.478 67.2592 226.473 66.3801 222.058C65.501 217.642 63.1833 211.255 63.1833 206.4C63.1833 201.545 66.0471 200.006 67.4857 197.143C68.518 195.071 67.5989 192.887 66.9795 191.808Z" fill="#263238"/>
<path d="M65.6343 190.323C65.6343 190.323 60.546 194.778 55.6443 195.258C50.7425 195.737 50.2363 195.731 50.2363 195.731" stroke="white" stroke-width="0.345985" stroke-linecap="round" stroke-linejoin="round"/>
<path d="M64.5221 186.98C64.5221 186.98 59.9067 192.234 56.0905 193.506C52.2744 194.778 50.6826 194.778 50.6826 194.778" stroke="white" stroke-width="0.345985" stroke-linecap="round" stroke-linejoin="round"/>
<path d="M61.8182 185.075C61.8182 185.075 60.5461 189.071 57.5225 190.962" stroke="white" stroke-width="0.345985" stroke-linecap="round" stroke-linejoin="round"/>
<path d="M53.0667 200.026C53.0667 200.026 52.9068 205.121 50.043 205.914C47.1792 206.706 44.0024 205.121 40.3394 207.026C38.9098 207.795 37.7483 208.981 37.0094 210.427C36.2706 211.873 35.9895 213.509 36.2036 215.118" stroke="white" stroke-width="0.345985" stroke-linecap="round" stroke-linejoin="round"/>
<path d="M35.0913 236.616C34.3326 235.515 33.8253 234.261 33.6055 232.942C33.3857 231.623 33.4587 230.272 33.8193 228.984C35.0913 224.688 36.0437 223.097 36.0437 223.097" stroke="white" stroke-width="0.345985" stroke-linecap="round" stroke-linejoin="round"/>
<path d="M63.2699 208.298C63.2699 208.298 64.0624 214.345 61.3584 218.162C58.6545 221.978 60.4061 227.233 60.4061 227.233" stroke="white" stroke-width="0.345985" stroke-linecap="round" stroke-linejoin="round"/>
<path d="M63.4098 202.73C63.4098 202.73 63.5697 204.482 61.3386 208.938C59.1075 213.393 58.4748 214.825 58.3149 218.008" stroke="white" stroke-width="0.345985" stroke-linecap="round" stroke-linejoin="round"/>
<path d="M78.6811 253.386C78.6811 253.386 82.2575 253.04 84.3288 253.959C86.4 254.878 86.8662 256.377 87.3258 254.998C87.7853 253.619 87.7853 252.807 86.0604 251.888C84.3354 250.969 83.6361 251.542 82.9502 250.849C82.6134 250.488 82.2251 250.178 81.798 249.93C81.798 249.93 79.9532 249.697 79.8333 250.736C79.7134 251.775 77.9951 252.114 77.9951 252.114L78.6811 253.386Z" fill="white" stroke="#263238" stroke-width="0.48509" stroke-miterlimit="10"/>
<path d="M93.633 226.32C92.4209 223.563 87.3659 225.454 81.5051 230.176C73.9194 236.29 68.0253 237.715 64.8551 237.962V237.862C63.2034 237.089 60.8591 237.056 58.0686 237.509C57.982 237.382 57.8954 237.256 57.8155 237.123C52.4875 228.858 51.0889 227.426 49.324 228.858C47.5591 230.289 45.5744 232.494 46.2338 239.334C46.2926 239.872 46.395 240.404 46.5401 240.925C43.9172 242.172 41.4233 243.673 39.0942 245.408C39.3505 246.572 39.7116 247.711 40.1732 248.811C43.1369 255.737 51.9147 255.105 57.649 253.02C59.383 253.958 61.2671 254.587 63.2168 254.878C67.7589 255.444 70.8291 255.278 72.6273 254.592L75.6776 257.083C80.479 253.44 84.5468 248.92 87.6656 243.763C89.1861 241.191 90.5344 238.521 91.7016 235.771C93.5997 231.475 94.2457 227.705 93.633 226.32Z" fill="#263238"/>
<path d="M57.8021 237.096C58.4371 238.089 59.131 239.043 59.88 239.953L80.586 236.237L74.0658 231.015L55.5977 233.719C56.2304 234.692 56.9696 235.824 57.8021 237.096Z" fill="#35B94E" stroke="#263238" stroke-width="0.48509" stroke-linecap="round" stroke-linejoin="round"/>
<path opacity="0.5" d="M57.8021 237.096C58.4371 238.089 59.131 239.043 59.88 239.953L80.586 236.237L74.0658 231.015L55.5977 233.719C56.2304 234.692 56.9696 235.824 57.8021 237.096Z" fill="white" stroke="#263238" stroke-width="0.52825" stroke-linecap="round" stroke-linejoin="round"/>
<path d="M62.4109 224.862L59.1875 239.094C59.4139 239.394 59.647 239.687 59.8535 239.973L80.5861 236.237L84.682 221.332L62.4109 224.862Z" fill="#35B94E" stroke="#263238" stroke-width="0.48509" stroke-linecap="round" stroke-linejoin="round"/>
<path d="M72.9604 233.14C72.5595 233.254 72.134 233.247 71.7371 233.12C71.3402 232.993 70.9896 232.751 70.7291 232.426C70.4687 232.101 70.3101 231.706 70.273 231.291C70.236 230.876 70.3222 230.459 70.5209 230.093C70.7197 229.726 71.022 229.427 71.3902 229.231C71.7583 229.036 72.1759 228.954 72.5906 228.995C73.0053 229.036 73.3987 229.198 73.7215 229.462C74.0444 229.725 74.2824 230.078 74.4056 230.476C74.5632 231.021 74.4999 231.606 74.2294 232.104C73.959 232.603 73.5031 232.975 72.9604 233.14Z" fill="white"/>
<path opacity="0.5" d="M62.4109 224.862L59.1875 239.094C59.4139 239.394 59.647 239.687 59.8535 239.973L80.5861 236.237L84.682 221.332L62.4109 224.862Z" fill="white" stroke="#263238" stroke-width="0.52825" stroke-linecap="round" stroke-linejoin="round"/>
<path d="M72.9604 233.14C72.5595 233.254 72.134 233.247 71.7371 233.12C71.3402 232.993 70.9896 232.751 70.7291 232.426C70.4687 232.101 70.3101 231.706 70.273 231.291C70.236 230.876 70.3222 230.459 70.5209 230.093C70.7197 229.726 71.022 229.427 71.3902 229.231C71.7583 229.036 72.1759 228.954 72.5906 228.995C73.0053 229.036 73.3987 229.198 73.7215 229.462C74.0444 229.725 74.2824 230.078 74.4056 230.476C74.5632 231.021 74.4999 231.606 74.2294 232.104C73.959 232.603 73.5031 232.975 72.9604 233.14Z" fill="white" stroke="#263238" stroke-width="0.52825" stroke-linecap="round" stroke-linejoin="round"/>
<path d="M71.9277 253.433C71.9277 253.433 69.0773 255.551 67.4722 256.43C65.8671 257.309 65.3543 257.009 63.8159 258.475C62.2774 259.94 60.972 260.959 60.6057 261.545C60.2394 262.131 59.7999 262.71 59.5801 261.398C59.4902 260.725 59.5782 260.04 59.8353 259.412C60.0923 258.783 60.5095 258.233 61.0453 257.815C62.0643 257.083 63.4562 256.79 63.4562 255.817C63.4227 255.393 63.5564 254.972 63.8289 254.645C64.1015 254.317 64.4911 254.11 64.9148 254.066C65.7206 254.066 66.2468 254.865 67.7652 254.066C68.8089 253.421 69.6655 252.514 70.2494 251.435L71.9277 253.433Z" fill="white" stroke="#263238" stroke-width="0.48509" stroke-miterlimit="10"/>
<path d="M46.7129 241.658C46.7129 241.658 49.8631 249.191 57.1225 252.614" stroke="white" stroke-width="0.345985" stroke-miterlimit="10"/>
<path d="M71.2021 247.825C71.2021 247.825 75.711 245.568 82.3177 234.152" stroke="white" stroke-width="0.345985" stroke-miterlimit="10"/>
<path d="M59.1143 239.327C59.1143 239.327 63.8895 246.327 69.4572 248.711" stroke="white" stroke-width="0.345985" stroke-miterlimit="10"/>
<path d="M144.815 168.065H103.923C101.101 168.065 98.8145 170.352 98.8145 173.173V259.5C98.8145 262.321 101.101 264.608 103.923 264.608H144.815C147.636 264.608 149.923 262.321 149.923 259.5V173.173C149.923 170.352 147.636 168.065 144.815 168.065Z" fill="#263238"/>
<path d="M147.652 178.668H101.085V254.012H147.652V178.668Z" fill="white"/>
<mask id="mask5_106_9" style="mask-type:luminance" maskUnits="userSpaceOnUse" x="101" y="178" width="47" height="77">
<path d="M147.652 178.668H101.085V254.012H147.652V178.668Z" fill="white"/>
</mask>
<g mask="url(#mask5_106_9)">
<g style="mix-blend-mode:multiply" opacity="0.4">
<path d="M147.652 228.691L104.242 254.006H147.652V228.691Z" fill="#35B94E"/>
</g>
</g>
<path d="M147.652 178.668H101.085V254.012H147.652V178.668Z" stroke="#263238" stroke-width="0.52825" stroke-miterlimit="10"/>
<path d="M129.43 173.393H119.307C119.13 173.393 118.961 173.323 118.836 173.198C118.711 173.073 118.641 172.904 118.641 172.727C118.641 172.55 118.711 172.381 118.836 172.256C118.961 172.131 119.13 172.061 119.307 172.061H129.43C129.607 172.061 129.776 172.131 129.901 172.256C130.026 172.381 130.096 172.55 130.096 172.727C130.096 172.904 130.026 173.073 129.901 173.198C129.776 173.323 129.607 173.393 129.43 173.393Z" fill="#35B94E"/>
<path opacity="0.4" d="M129.43 173.393H119.307C119.13 173.393 118.961 173.323 118.836 173.198C118.711 173.073 118.641 172.904 118.641 172.727C118.641 172.55 118.711 172.381 118.836 172.256C118.961 172.131 119.13 172.061 119.307 172.061H129.43C129.607 172.061 129.776 172.131 129.901 172.256C130.026 172.381 130.096 172.55 130.096 172.727C130.096 172.904 130.026 173.073 129.901 173.198C129.776 173.323 129.607 173.393 129.43 173.393Z" fill="white"/>
<path d="M127.133 258.261C127.133 257.715 126.971 257.18 126.667 256.726C126.363 256.271 125.932 255.917 125.427 255.708C124.922 255.499 124.366 255.444 123.83 255.551C123.294 255.657 122.801 255.921 122.415 256.307C122.028 256.694 121.765 257.186 121.658 257.722C121.551 258.258 121.606 258.814 121.815 259.319C122.025 259.824 122.379 260.256 122.833 260.56C123.288 260.863 123.822 261.025 124.369 261.025C125.102 261.025 125.805 260.734 126.323 260.216C126.842 259.698 127.133 258.995 127.133 258.261Z" fill="#35B94E" stroke="#263238" stroke-width="0.704333" stroke-miterlimit="10"/>
<path d="M125.767 256.863H122.97V259.66H125.767V256.863Z" fill="#35B94E" stroke="#263238" stroke-width="0.52825" stroke-linecap="round" stroke-linejoin="round"/>
<path opacity="0.6" d="M125.767 256.863H122.97V259.66H125.767V256.863Z" fill="white" stroke="#263238" stroke-width="0.52825" stroke-linecap="round" stroke-linejoin="round"/>
<path d="M125.767 256.863H122.97V259.66H125.767V256.863Z" stroke="#263238" stroke-width="0.52825" stroke-linecap="round" stroke-linejoin="round"/>
<path d="M283.17 257.402V197.815C283.17 193.703 279.836 190.369 275.724 190.369H149.937C145.824 190.369 142.491 193.703 142.491 197.815V257.402C142.491 261.515 145.824 264.848 149.937 264.848H275.724C279.836 264.848 283.17 261.515 283.17 257.402Z" fill="#35B94E" stroke="#263238" stroke-width="0.868674" stroke-miterlimit="10"/>
<path d="M275.671 261.538V193.679H149.99V261.538H275.671Z" fill="white"/>
<mask id="mask6_106_9" style="mask-type:luminance" maskUnits="userSpaceOnUse" x="149" y="193" width="127" height="69">
<path d="M275.67 261.538V193.679H149.99V261.538H275.67Z" fill="white"/>
</mask>
<g mask="url(#mask6_106_9)">
<g style="mix-blend-mode:multiply" opacity="0.4">
<path d="M275.671 207.299L182.677 261.532H275.671V207.299Z" fill="#35B94E"/>
</g>
</g>
<path d="M275.671 261.538V193.679H149.99V261.538H275.671Z" stroke="#263238" stroke-width="0.651505" stroke-miterlimit="10"/>
<path d="M279.054 228.624C278.851 228.624 278.652 228.564 278.483 228.451C278.315 228.338 278.183 228.178 278.106 227.99C278.028 227.802 278.008 227.595 278.049 227.396C278.089 227.197 278.187 227.014 278.331 226.871C278.475 226.728 278.659 226.631 278.858 226.592C279.057 226.553 279.264 226.575 279.451 226.653C279.638 226.732 279.798 226.864 279.91 227.034C280.022 227.203 280.081 227.402 280.08 227.606C280.078 227.876 279.969 228.136 279.777 228.326C279.585 228.517 279.325 228.624 279.054 228.624Z" fill="#263238"/>
<path d="M260.845 191.049H265.341C265.477 191.049 265.587 190.938 265.587 190.802V190.616C265.587 190.48 265.477 190.369 265.341 190.369H260.845C260.709 190.369 260.599 190.48 260.599 190.616V190.802C260.599 190.938 260.709 191.049 260.845 191.049Z" fill="#35B94E" stroke="#263238" stroke-width="0.652671" stroke-miterlimit="10"/>
<path d="M244.968 191.042H253.579C253.625 191.043 253.67 191.035 253.711 191.018C253.753 191.002 253.792 190.977 253.824 190.945C253.856 190.913 253.882 190.876 253.899 190.834C253.917 190.792 253.926 190.748 253.926 190.702C253.926 190.657 253.917 190.613 253.899 190.571C253.882 190.529 253.856 190.492 253.824 190.46C253.792 190.428 253.753 190.403 253.711 190.387C253.67 190.37 253.625 190.362 253.579 190.363H244.968C244.878 190.363 244.792 190.399 244.728 190.462C244.664 190.526 244.628 190.612 244.628 190.702C244.628 190.793 244.664 190.879 244.728 190.943C244.792 191.006 244.878 191.042 244.968 191.042Z" fill="#35B94E" stroke="#263238" stroke-width="0.652671" stroke-miterlimit="10"/>
<path d="M268.631 266.733C268.631 267.725 262.691 268.531 255.365 268.531C248.039 268.531 242.091 267.732 242.091 266.733C242.091 265.734 248.032 264.928 255.365 264.928C262.697 264.928 268.631 265.734 268.631 266.733Z" fill="#35B94E"/>
<path d="M243.943 240.04C243.943 255.198 255.931 267.479 255.931 267.479C255.931 267.479 267.919 255.198 267.919 240.04C267.919 224.882 255.931 212.601 255.931 212.601C255.931 212.601 243.943 224.882 243.943 240.04Z" fill="#263238"/>
<path d="M255.951 267.479V212.601" stroke="white" stroke-width="0.738" stroke-miterlimit="10"/>
<path d="M255.951 232.108L249.224 226.24" stroke="white" stroke-width="0.738" stroke-miterlimit="10"/>
<path d="M256.057 241.179L264.375 229.117" stroke="white" stroke-width="0.738" stroke-miterlimit="10"/>
<path d="M255.951 246.407L246.027 237.549" stroke="white" stroke-width="0.738" stroke-miterlimit="10"/>
<path d="M256.057 253.446L265.874 244.695" stroke="white" stroke-width="0.738" stroke-miterlimit="10"/>
<path d="M256.057 259.527L248.372 253.446" stroke="white" stroke-width="0.738" stroke-miterlimit="10"/>
<path d="M235.624 259.74C241.459 266.32 251.389 267.026 251.389 267.026C251.389 267.026 251.875 257.083 246.061 250.503C240.246 243.922 230.296 243.217 230.296 243.217C230.296 243.217 229.77 253.193 235.624 259.74Z" fill="#263238"/>
<path d="M251.389 267.053L230.276 243.243" stroke="white" stroke-width="0.738" stroke-miterlimit="10"/>
<path d="M237.782 251.708L232.607 251.748" stroke="white" stroke-width="0.738" stroke-miterlimit="10"/>
<path d="M241.318 255.604L240.286 247.173" stroke="white" stroke-width="0.738" stroke-miterlimit="10"/>
<path d="M243.283 257.908L235.571 257.889" stroke="white" stroke-width="0.738" stroke-miterlimit="10"/>
<path d="M246.041 260.925L246.933 253.353" stroke="white" stroke-width="0.738" stroke-miterlimit="10"/>
<path d="M248.378 263.563L242.704 263.883" stroke="white" stroke-width="0.738" stroke-miterlimit="10"/>
<path d="M266.22 250.303C260.093 256.603 260.126 266.566 260.126 266.566C260.126 266.566 270.083 266.307 276.204 260C282.324 253.693 282.298 243.756 282.298 243.756C282.298 243.756 272.341 243.996 266.22 250.303Z" fill="#263238"/>
<path d="M260.126 266.567L282.298 243.736" stroke="white" stroke-width="0.738" stroke-miterlimit="10"/>
<path d="M274.419 251.848L273.993 246.693" stroke="white" stroke-width="0.738" stroke-miterlimit="10"/>
<path d="M270.796 255.664L279.128 254.012" stroke="white" stroke-width="0.738" stroke-miterlimit="10"/>
<path d="M268.638 257.795L268.092 250.103" stroke="white" stroke-width="0.738" stroke-miterlimit="10"/>
<path d="M265.841 260.772L273.46 261.092" stroke="white" stroke-width="0.738" stroke-miterlimit="10"/>
<path d="M263.383 263.303L262.644 257.669" stroke="white" stroke-width="0.738" stroke-miterlimit="10"/>
</svg>
